<svg width="231" height="84" viewBox="0 0 231 84" fill="none" xmlns="http://www.w3.org/2000/svg">
<rect x="2" y="2" width="227" height="80" rx="12" fill="#FFCCCC" stroke="black" stroke-width="4"/>
<path d="M78.3899 54C77.5539 54 76.9079 53.7847 76.4519 53.354C76.0212 52.898 75.8059 52.252 75.8059 51.416V29.794C75.8059 28.958 76.0212 28.3247 76.4519 27.894C76.9079 27.438 77.5539 27.21 78.3899 27.21H87.5099C89.3846 27.21 90.9806 27.4887 92.2979 28.046C93.6152 28.6033 94.6159 29.4013 95.2999 30.44C96.0092 31.4787 96.3639 32.72 96.3639 34.164C96.3639 35.7853 95.8952 37.1533 94.9579 38.268C94.0206 39.3827 92.7412 40.13 91.1199 40.51V39.94C92.9946 40.2187 94.4512 40.928 95.4899 42.068C96.5286 43.208 97.0479 44.69 97.0479 46.514C97.0479 48.8953 96.2372 50.7447 94.6159 52.062C93.0199 53.354 90.7905 54 87.9279 54H78.3899ZM80.4799 50.314H87.3199C89.0426 50.314 90.3092 49.9847 91.1199 49.326C91.9306 48.642 92.3359 47.6287 92.3359 46.286C92.3359 44.918 91.9306 43.9047 91.1199 43.246C90.3092 42.5873 89.0426 42.258 87.3199 42.258H80.4799V50.314ZM80.4799 38.572H86.6739C88.3459 38.572 89.5872 38.2553 90.3979 37.622C91.2339 36.9633 91.6519 36.0007 91.6519 34.734C91.6519 33.4673 91.2339 32.5173 90.3979 31.884C89.5872 31.2253 88.3459 30.896 86.6739 30.896H80.4799V38.572ZM107.63 54.38C106.287 54.38 105.084 54.1267 104.02 53.62C102.981 53.088 102.158 52.3787 101.55 51.492C100.967 50.6053 100.676 49.6047 100.676 48.49C100.676 47.122 101.031 46.0453 101.74 45.26C102.449 44.4493 103.602 43.8667 105.198 43.512C106.794 43.1573 108.935 42.98 111.62 42.98H113.52V45.716H111.658C110.087 45.716 108.833 45.792 107.896 45.944C106.959 46.096 106.287 46.362 105.882 46.742C105.502 47.0967 105.312 47.6033 105.312 48.262C105.312 49.098 105.603 49.782 106.186 50.314C106.769 50.846 107.579 51.112 108.618 51.112C109.454 51.112 110.189 50.922 110.822 50.542C111.481 50.1367 112 49.592 112.38 48.908C112.76 48.224 112.95 47.4387 112.95 46.552V42.182C112.95 40.9153 112.671 40.0033 112.114 39.446C111.557 38.8887 110.619 38.61 109.302 38.61C108.567 38.61 107.769 38.6987 106.908 38.876C106.072 39.0533 105.185 39.3573 104.248 39.788C103.767 40.016 103.336 40.0793 102.956 39.978C102.601 39.8767 102.323 39.674 102.12 39.37C101.917 39.0407 101.816 38.686 101.816 38.306C101.816 37.926 101.917 37.5587 102.12 37.204C102.323 36.824 102.665 36.5453 103.146 36.368C104.311 35.8867 105.426 35.5447 106.49 35.342C107.579 35.1393 108.567 35.038 109.454 35.038C111.278 35.038 112.773 35.3167 113.938 35.874C115.129 36.4313 116.015 37.28 116.598 38.42C117.181 39.5347 117.472 40.9787 117.472 42.752V51.872C117.472 52.6573 117.282 53.2653 116.902 53.696C116.522 54.1013 115.977 54.304 115.268 54.304C114.559 54.304 114.001 54.1013 113.596 53.696C113.216 53.2653 113.026 52.6573 113.026 51.872V50.048H113.33C113.153 50.9347 112.798 51.7073 112.266 52.366C111.759 52.9993 111.113 53.4933 110.328 53.848C109.543 54.2027 108.643 54.38 107.63 54.38ZM130.881 54.38C128.931 54.38 127.233 53.9873 125.789 53.202C124.345 52.3913 123.231 51.2513 122.445 49.782C121.66 48.3127 121.267 46.59 121.267 44.614C121.267 43.1193 121.483 41.7893 121.913 40.624C122.369 39.4333 123.015 38.4327 123.851 37.622C124.687 36.786 125.701 36.1527 126.891 35.722C128.082 35.266 129.412 35.038 130.881 35.038C131.717 35.038 132.617 35.152 133.579 35.38C134.567 35.608 135.492 35.988 136.353 36.52C136.759 36.7733 137.025 37.0773 137.151 37.432C137.278 37.7867 137.303 38.154 137.227 38.534C137.151 38.8887 136.987 39.2053 136.733 39.484C136.505 39.7373 136.214 39.902 135.859 39.978C135.505 40.0287 135.112 39.94 134.681 39.712C134.124 39.3827 133.554 39.142 132.971 38.99C132.389 38.8127 131.831 38.724 131.299 38.724C130.463 38.724 129.729 38.8633 129.095 39.142C128.462 39.3953 127.917 39.7753 127.461 40.282C127.031 40.7633 126.701 41.3713 126.473 42.106C126.245 42.8407 126.131 43.6893 126.131 44.652C126.131 46.5267 126.575 48.0087 127.461 49.098C128.373 50.162 129.653 50.694 131.299 50.694C131.831 50.694 132.376 50.618 132.933 50.466C133.516 50.314 134.099 50.0733 134.681 49.744C135.112 49.516 135.492 49.44 135.821 49.516C136.176 49.592 136.467 49.7693 136.695 50.048C136.923 50.3013 137.063 50.618 137.113 50.998C137.164 51.3527 137.113 51.7073 136.961 52.062C136.835 52.4167 136.581 52.708 136.201 52.936C135.365 53.4427 134.479 53.81 133.541 54.038C132.604 54.266 131.717 54.38 130.881 54.38ZM142.573 54.304C141.813 54.304 141.23 54.1013 140.825 53.696C140.42 53.2653 140.217 52.6573 140.217 51.872V29.3C140.217 28.5147 140.42 27.9193 140.825 27.514C141.23 27.1087 141.813 26.906 142.573 26.906C143.333 26.906 143.916 27.1087 144.321 27.514C144.752 27.9193 144.967 28.5147 144.967 29.3V43.322H145.043L151.313 36.71C151.82 36.2033 152.263 35.8107 152.643 35.532C153.023 35.2533 153.542 35.114 154.201 35.114C154.86 35.114 155.354 35.2913 155.683 35.646C156.038 35.9753 156.215 36.3807 156.215 36.862C156.215 37.3433 155.987 37.8247 155.531 38.306L148.919 45.298V43.322L156.177 51.15C156.633 51.6313 156.836 52.1253 156.785 52.632C156.76 53.1133 156.557 53.5187 156.177 53.848C155.797 54.152 155.316 54.304 154.733 54.304C154.024 54.304 153.454 54.1647 153.023 53.886C152.618 53.6073 152.162 53.1893 151.655 52.632L145.043 45.716H144.967V51.872C144.967 53.4933 144.169 54.304 142.573 54.304Z" fill="black"/>
</svg>
