<svg width="231" height="84" viewBox="0 0 231 84" fill="none" xmlns="http://www.w3.org/2000/svg">
<rect x="2" y="2" width="227" height="80" rx="12" fill="#FFCCCC" stroke="black" stroke-width="4"/>
<path d="M54.2131 54C53.3771 54 52.7311 53.7847 52.2751 53.354C51.8445 52.898 51.6291 52.252 51.6291 51.416V29.794C51.6291 28.958 51.8445 28.3247 52.2751 27.894C52.7311 27.438 53.3771 27.21 54.2131 27.21H63.3331C65.2078 27.21 66.8038 27.4887 68.1211 28.046C69.4385 28.6033 70.4391 29.4013 71.1231 30.44C71.8325 31.4787 72.1871 32.72 72.1871 34.164C72.1871 35.7853 71.7185 37.1533 70.7811 38.268C69.8438 39.3827 68.5645 40.13 66.9431 40.51V39.94C68.8178 40.2187 70.2745 40.928 71.3131 42.068C72.3518 43.208 72.8711 44.69 72.8711 46.514C72.8711 48.8953 72.0605 50.7447 70.4391 52.062C68.8431 53.354 66.6138 54 63.7511 54H54.2131ZM56.3031 50.314H63.1431C64.8658 50.314 66.1325 49.9847 66.9431 49.326C67.7538 48.642 68.1591 47.6287 68.1591 46.286C68.1591 44.918 67.7538 43.9047 66.9431 43.246C66.1325 42.5873 64.8658 42.258 63.1431 42.258H56.3031V50.314ZM56.3031 38.572H62.4971C64.1691 38.572 65.4105 38.2553 66.2211 37.622C67.0571 36.9633 67.4751 36.0007 67.4751 34.734C67.4751 33.4673 67.0571 32.5173 66.2211 31.884C65.4105 31.2253 64.1691 30.896 62.4971 30.896H56.3031V38.572ZM85.8092 54.38C83.8839 54.38 82.2119 53.9873 80.7932 53.202C79.3746 52.4167 78.2726 51.302 77.4872 49.858C76.7019 48.3887 76.3092 46.666 76.3092 44.69C76.3092 43.1953 76.5246 41.8653 76.9552 40.7C77.4112 39.5093 78.0572 38.496 78.8932 37.66C79.7292 36.7987 80.7299 36.1527 81.8952 35.722C83.0606 35.266 84.3652 35.038 85.8092 35.038C87.7346 35.038 89.4066 35.4307 90.8252 36.216C92.2439 37.0013 93.3459 38.116 94.1312 39.56C94.9166 41.004 95.3092 42.714 95.3092 44.69C95.3092 46.1847 95.0812 47.5273 94.6252 48.718C94.1946 49.9087 93.5612 50.9347 92.7252 51.796C91.8892 52.632 90.8886 53.278 89.7232 53.734C88.5579 54.1647 87.2532 54.38 85.8092 54.38ZM85.8092 50.77C86.7466 50.77 87.5699 50.542 88.2792 50.086C88.9886 49.63 89.5332 48.9587 89.9132 48.072C90.3186 47.16 90.5212 46.0327 90.5212 44.69C90.5212 42.6633 90.0906 41.156 89.2292 40.168C88.3679 39.1547 87.2279 38.648 85.8092 38.648C84.8719 38.648 84.0486 38.876 83.3392 39.332C82.6299 39.7627 82.0726 40.434 81.6672 41.346C81.2872 42.2327 81.0972 43.3473 81.0972 44.69C81.0972 46.6913 81.5279 48.2113 82.3892 49.25C83.2506 50.2633 84.3906 50.77 85.8092 50.77ZM107.704 54.38C105.778 54.38 104.106 53.9873 102.688 53.202C101.269 52.4167 100.167 51.302 99.3818 49.858C98.5964 48.3887 98.2038 46.666 98.2038 44.69C98.2038 43.1953 98.4191 41.8653 98.8498 40.7C99.3058 39.5093 99.9518 38.496 100.788 37.66C101.624 36.7987 102.624 36.1527 103.79 35.722C104.955 35.266 106.26 35.038 107.704 35.038C109.629 35.038 111.301 35.4307 112.72 36.216C114.138 37.0013 115.24 38.116 116.026 39.56C116.811 41.004 117.204 42.714 117.204 44.69C117.204 46.1847 116.976 47.5273 116.52 48.718C116.089 49.9087 115.456 50.9347 114.62 51.796C113.784 52.632 112.783 53.278 111.618 53.734C110.452 54.1647 109.148 54.38 107.704 54.38ZM107.704 50.77C108.641 50.77 109.464 50.542 110.174 50.086C110.883 49.63 111.428 48.9587 111.808 48.072C112.213 47.16 112.416 46.0327 112.416 44.69C112.416 42.6633 111.985 41.156 111.124 40.168C110.262 39.1547 109.122 38.648 107.704 38.648C106.766 38.648 105.943 38.876 105.234 39.332C104.524 39.7627 103.967 40.434 103.562 41.346C103.182 42.2327 102.992 43.3473 102.992 44.69C102.992 46.6913 103.422 48.2113 104.284 49.25C105.145 50.2633 106.285 50.77 107.704 50.77ZM123.48 54.304C122.72 54.304 122.138 54.1013 121.732 53.696C121.327 53.2653 121.124 52.6573 121.124 51.872V29.3C121.124 28.5147 121.327 27.9193 121.732 27.514C122.138 27.1087 122.72 26.906 123.48 26.906C124.24 26.906 124.823 27.1087 125.228 27.514C125.659 27.9193 125.874 28.5147 125.874 29.3V43.322H125.95L132.22 36.71C132.727 36.2033 133.17 35.8107 133.55 35.532C133.93 35.2533 134.45 35.114 135.108 35.114C135.767 35.114 136.261 35.2913 136.59 35.646C136.945 35.9753 137.122 36.3807 137.122 36.862C137.122 37.3433 136.894 37.8247 136.438 38.306L129.826 45.298V43.322L137.084 51.15C137.54 51.6313 137.743 52.1253 137.692 52.632C137.667 53.1133 137.464 53.5187 137.084 53.848C136.704 54.152 136.223 54.304 135.64 54.304C134.931 54.304 134.361 54.1647 133.93 53.886C133.525 53.6073 133.069 53.1893 132.562 52.632L125.95 45.716H125.874V51.872C125.874 53.4933 125.076 54.304 123.48 54.304ZM154.702 54.304C153.916 54.304 153.308 54.0887 152.878 53.658C152.472 53.202 152.27 52.5813 152.27 51.796V29.414C152.27 28.6033 152.472 27.9827 152.878 27.552C153.308 27.1213 153.916 26.906 154.702 26.906C155.487 26.906 156.082 27.1213 156.488 27.552C156.918 27.9827 157.134 28.6033 157.134 29.414V51.796C157.134 52.5813 156.931 53.202 156.526 53.658C156.12 54.0887 155.512 54.304 154.702 54.304ZM164.894 54.304C164.134 54.304 163.552 54.1013 163.146 53.696C162.741 53.2653 162.538 52.6573 162.538 51.872V37.508C162.538 36.7227 162.741 36.1273 163.146 35.722C163.552 35.3167 164.122 35.114 164.856 35.114C165.591 35.114 166.161 35.3167 166.566 35.722C166.972 36.1273 167.174 36.7227 167.174 37.508V40.092L166.756 39.142C167.314 37.7993 168.175 36.786 169.34 36.102C170.531 35.3927 171.874 35.038 173.368 35.038C174.863 35.038 176.092 35.3167 177.054 35.874C178.017 36.4313 178.739 37.28 179.22 38.42C179.702 39.5347 179.942 40.9533 179.942 42.676V51.872C179.942 52.6573 179.74 53.2653 179.334 53.696C178.929 54.1013 178.346 54.304 177.586 54.304C176.826 54.304 176.231 54.1013 175.8 53.696C175.395 53.2653 175.192 52.6573 175.192 51.872V42.904C175.192 41.46 174.914 40.4087 174.356 39.75C173.824 39.0913 172.988 38.762 171.848 38.762C170.455 38.762 169.34 39.2053 168.504 40.092C167.694 40.9533 167.288 42.106 167.288 43.55V51.872C167.288 53.4933 166.49 54.304 164.894 54.304Z" fill="black"/>
</svg>
