<svg width="497" height="121" viewBox="0 0 497 121" fill="none" xmlns="http://www.w3.org/2000/svg">
<rect x="2" y="10" width="493" height="109" rx="25" fill="#FFCCCC" stroke="black" stroke-width="4"/>
<path d="M101.145 101.4C100.111 101.4 99.3114 101.117 98.7447 100.55C98.2114 99.95 97.9447 99.1333 97.9447 98.1V69C97.9447 67.9333 98.2281 67.1333 98.7947 66.6C99.3614 66.0333 100.161 65.75 101.195 65.75H113.245C117.111 65.75 120.095 66.6833 122.195 68.55C124.295 70.3833 125.345 72.9667 125.345 76.3C125.345 78.4667 124.861 80.3333 123.895 81.9C122.961 83.4667 121.595 84.6667 119.795 85.5C117.995 86.3333 115.811 86.75 113.245 86.75L113.695 86H115.345C116.711 86 117.895 86.3333 118.895 87C119.928 87.6667 120.828 88.7167 121.595 90.15L125.345 97.1C125.745 97.8 125.928 98.4833 125.895 99.15C125.861 99.8167 125.611 100.367 125.145 100.8C124.678 101.2 123.995 101.4 123.095 101.4C122.195 101.4 121.461 101.217 120.895 100.85C120.328 100.45 119.828 99.85 119.395 99.05L114.345 89.75C113.745 88.6167 113.028 87.8667 112.195 87.5C111.395 87.1 110.361 86.9 109.095 86.9H104.345V98.1C104.345 99.1333 104.078 99.95 103.545 100.55C103.011 101.117 102.211 101.4 101.145 101.4ZM104.345 82.15H112.145C114.445 82.15 116.178 81.6833 117.345 80.75C118.545 79.7833 119.145 78.35 119.145 76.45C119.145 74.5833 118.545 73.1833 117.345 72.25C116.178 71.2833 114.445 70.8 112.145 70.8H104.345V82.15ZM142.137 101.5C139.604 101.5 137.404 100.983 135.537 99.95C133.671 98.9167 132.221 97.45 131.187 95.55C130.154 93.6167 129.637 91.35 129.637 88.75C129.637 86.7833 129.921 85.0333 130.487 83.5C131.087 81.9333 131.937 80.6 133.037 79.5C134.137 78.3667 135.454 77.5167 136.987 76.95C138.521 76.35 140.237 76.05 142.137 76.05C144.671 76.05 146.871 76.5667 148.737 77.6C150.604 78.6333 152.054 80.1 153.087 82C154.121 83.9 154.637 86.15 154.637 88.75C154.637 90.7167 154.337 92.4833 153.737 94.05C153.171 95.6167 152.337 96.9667 151.237 98.1C150.137 99.2 148.821 100.05 147.287 100.65C145.754 101.217 144.037 101.5 142.137 101.5ZM142.137 96.75C143.371 96.75 144.454 96.45 145.387 95.85C146.321 95.25 147.037 94.3667 147.537 93.2C148.071 92 148.337 90.5167 148.337 88.75C148.337 86.0833 147.771 84.1 146.637 82.8C145.504 81.4667 144.004 80.8 142.137 80.8C140.904 80.8 139.821 81.1 138.887 81.7C137.954 82.2667 137.221 83.15 136.687 84.35C136.187 85.5167 135.937 86.9833 135.937 88.75C135.937 91.3833 136.504 93.3833 137.637 94.75C138.771 96.0833 140.271 96.75 142.137 96.75ZM162.896 101.4C161.896 101.4 161.129 101.133 160.596 100.6C160.063 100.033 159.796 99.2333 159.796 98.2V79.3C159.796 78.2667 160.063 77.4833 160.596 76.95C161.129 76.4167 161.879 76.15 162.846 76.15C163.813 76.15 164.563 76.4167 165.096 76.95C165.629 77.4833 165.896 78.2667 165.896 79.3V82.7L165.346 81.45C166.079 79.6833 167.213 78.35 168.746 77.45C170.313 76.5167 172.079 76.05 174.046 76.05C176.013 76.05 177.629 76.4167 178.896 77.15C180.163 77.8833 181.113 79 181.746 80.5C182.379 81.9667 182.696 83.8333 182.696 86.1V98.2C182.696 99.2333 182.429 100.033 181.896 100.6C181.363 101.133 180.596 101.4 179.596 101.4C178.596 101.4 177.813 101.133 177.246 100.6C176.713 100.033 176.446 99.2333 176.446 98.2V86.4C176.446 84.5 176.079 83.1167 175.346 82.25C174.646 81.3833 173.546 80.95 172.046 80.95C170.213 80.95 168.746 81.5333 167.646 82.7C166.579 83.8333 166.046 85.35 166.046 87.25V98.2C166.046 100.333 164.996 101.4 162.896 101.4ZM201.094 101.5C198.327 101.5 195.944 100.983 193.944 99.95C191.944 98.9167 190.394 97.45 189.294 95.55C188.227 93.65 187.694 91.4 187.694 88.8C187.694 86.2667 188.211 84.05 189.244 82.15C190.311 80.25 191.761 78.7667 193.594 77.7C195.461 76.6 197.577 76.05 199.944 76.05C201.677 76.05 203.227 76.3333 204.594 76.9C205.994 77.4667 207.177 78.2833 208.144 79.35C209.144 80.4167 209.894 81.7167 210.394 83.25C210.927 84.75 211.194 86.45 211.194 88.35C211.194 88.95 210.977 89.4167 210.544 89.75C210.144 90.05 209.561 90.2 208.794 90.2H192.744V86.6H206.794L205.994 87.35C205.994 85.8167 205.761 84.5333 205.294 83.5C204.861 82.4667 204.211 81.6833 203.344 81.15C202.511 80.5833 201.461 80.3 200.194 80.3C198.794 80.3 197.594 80.6333 196.594 81.3C195.627 81.9333 194.877 82.85 194.344 84.05C193.844 85.2167 193.594 86.6167 193.594 88.25V88.6C193.594 91.3333 194.227 93.3833 195.494 94.75C196.794 96.0833 198.694 96.75 201.194 96.75C202.061 96.75 203.027 96.65 204.094 96.45C205.194 96.2167 206.227 95.8333 207.194 95.3C207.894 94.9 208.511 94.7333 209.044 94.8C209.577 94.8333 209.994 95.0167 210.294 95.35C210.627 95.6833 210.827 96.1 210.894 96.6C210.961 97.0667 210.861 97.55 210.594 98.05C210.361 98.55 209.944 98.9833 209.344 99.35C208.177 100.083 206.827 100.633 205.294 101C203.794 101.333 202.394 101.5 201.094 101.5ZM224.494 101.5C221.727 101.5 219.644 100.717 218.244 99.15C216.844 97.55 216.144 95.2167 216.144 92.15V68.5C216.144 67.4667 216.41 66.6833 216.944 66.15C217.477 65.6167 218.244 65.35 219.244 65.35C220.244 65.35 221.01 65.6167 221.544 66.15C222.11 66.6833 222.394 67.4667 222.394 68.5V91.85C222.394 93.3833 222.71 94.5167 223.344 95.25C224.01 95.9833 224.944 96.35 226.144 96.35C226.41 96.35 226.66 96.35 226.894 96.35C227.127 96.3167 227.36 96.2833 227.594 96.25C228.06 96.1833 228.377 96.3167 228.544 96.65C228.71 96.95 228.794 97.5833 228.794 98.55C228.794 99.3833 228.627 100.033 228.294 100.5C227.96 100.967 227.41 101.25 226.644 101.35C226.31 101.383 225.96 101.417 225.594 101.45C225.227 101.483 224.86 101.5 224.494 101.5ZM233.42 78C232.987 78.5333 232.52 78.8333 232.02 78.9C231.553 78.9667 231.137 78.8833 230.77 78.65C230.403 78.3833 230.203 78.0167 230.17 77.55C230.137 77.05 230.353 76.5167 230.82 75.95C231.487 75.1167 231.937 74.2833 232.17 73.45C232.403 72.6167 232.52 71.8833 232.52 71.25L232.77 72.9C231.603 72.9 230.653 72.5667 229.92 71.9C229.22 71.2333 228.87 70.3333 228.87 69.2C228.87 68.1 229.203 67.2167 229.87 66.55C230.537 65.85 231.437 65.5 232.57 65.5C233.737 65.5 234.653 65.9 235.32 66.7C235.987 67.4667 236.32 68.5833 236.32 70.05C236.32 70.85 236.237 71.6833 236.07 72.55C235.937 73.3833 235.653 74.2667 235.22 75.2C234.82 76.1 234.22 77.0333 233.42 78ZM249.556 101.5C248.123 101.5 246.606 101.35 245.006 101.05C243.406 100.75 241.973 100.233 240.706 99.5C240.173 99.1667 239.79 98.7833 239.556 98.35C239.356 97.8833 239.273 97.4333 239.306 97C239.373 96.5333 239.54 96.1333 239.806 95.8C240.106 95.4667 240.473 95.25 240.906 95.15C241.373 95.05 241.873 95.1333 242.406 95.4C243.74 96.0333 244.99 96.4833 246.156 96.75C247.323 96.9833 248.473 97.1 249.606 97.1C251.206 97.1 252.39 96.8333 253.156 96.3C253.956 95.7333 254.356 95 254.356 94.1C254.356 93.3333 254.09 92.75 253.556 92.35C253.056 91.9167 252.29 91.6 251.256 91.4L246.256 90.45C244.19 90.05 242.606 89.3 241.506 88.2C240.44 87.0667 239.906 85.6167 239.906 83.85C239.906 82.25 240.34 80.8667 241.206 79.7C242.106 78.5333 243.34 77.6333 244.906 77C246.473 76.3667 248.273 76.05 250.306 76.05C251.773 76.05 253.14 76.2167 254.406 76.55C255.706 76.85 256.956 77.3333 258.156 78C258.656 78.2667 258.99 78.6167 259.156 79.05C259.356 79.4833 259.406 79.9333 259.306 80.4C259.206 80.8333 259.006 81.2333 258.706 81.6C258.406 81.9333 258.023 82.15 257.556 82.25C257.123 82.3167 256.623 82.2167 256.056 81.95C255.023 81.4167 254.023 81.0333 253.056 80.8C252.123 80.5667 251.223 80.45 250.356 80.45C248.723 80.45 247.506 80.7333 246.706 81.3C245.94 81.8667 245.556 82.6167 245.556 83.55C245.556 84.25 245.79 84.8333 246.256 85.3C246.723 85.7667 247.44 86.0833 248.406 86.25L253.406 87.2C255.573 87.6 257.206 88.3333 258.306 89.4C259.44 90.4667 260.006 91.9 260.006 93.7C260.006 96.1333 259.056 98.05 257.156 99.45C255.256 100.817 252.723 101.5 249.556 101.5ZM295.595 101.5C291.928 101.5 288.778 100.767 286.145 99.3C283.545 97.8 281.545 95.7 280.145 93C278.745 90.2667 278.045 87.05 278.045 83.35C278.045 80.5833 278.445 78.1 279.245 75.9C280.045 73.6667 281.195 71.7667 282.695 70.2C284.195 68.6 286.028 67.3833 288.195 66.55C290.395 65.6833 292.861 65.25 295.595 65.25C297.428 65.25 299.228 65.4833 300.995 65.95C302.761 66.4167 304.311 67.0833 305.645 67.95C306.345 68.3833 306.811 68.9167 307.045 69.55C307.278 70.15 307.328 70.75 307.195 71.35C307.061 71.9167 306.778 72.4 306.345 72.8C305.945 73.2 305.428 73.4333 304.795 73.5C304.195 73.5333 303.528 73.3167 302.795 72.85C301.761 72.1833 300.645 71.7 299.445 71.4C298.245 71.1 297.028 70.95 295.795 70.95C293.428 70.95 291.428 71.4333 289.795 72.4C288.161 73.3667 286.928 74.7667 286.095 76.6C285.261 78.4333 284.845 80.6833 284.845 83.35C284.845 85.9833 285.261 88.2333 286.095 90.1C286.928 91.9667 288.161 93.3833 289.795 94.35C291.428 95.3167 293.428 95.8 295.795 95.8C297.061 95.8 298.311 95.65 299.545 95.35C300.778 95.0167 301.945 94.5167 303.045 93.85C303.778 93.4167 304.428 93.2333 304.995 93.3C305.595 93.3333 306.095 93.5333 306.495 93.9C306.895 94.2667 307.161 94.7333 307.295 95.3C307.428 95.8333 307.395 96.4 307.195 97C306.995 97.5667 306.595 98.0667 305.995 98.5C304.661 99.4667 303.061 100.217 301.195 100.75C299.361 101.25 297.495 101.5 295.595 101.5ZM319.75 101.5C317.984 101.5 316.4 101.167 315 100.5C313.634 99.8 312.55 98.8667 311.75 97.7C310.984 96.5333 310.6 95.2167 310.6 93.75C310.6 91.95 311.067 90.5333 312 89.5C312.934 88.4333 314.45 87.6667 316.55 87.2C318.65 86.7333 321.467 86.5 325 86.5H327.5V90.1H325.05C322.984 90.1 321.334 90.2 320.1 90.4C318.867 90.6 317.984 90.95 317.45 91.45C316.95 91.9167 316.7 92.5833 316.7 93.45C316.7 94.55 317.084 95.45 317.85 96.15C318.617 96.85 319.684 97.2 321.05 97.2C322.15 97.2 323.117 96.95 323.95 96.45C324.817 95.9167 325.5 95.2 326 94.3C326.5 93.4 326.75 92.3667 326.75 91.2V85.45C326.75 83.7833 326.384 82.5833 325.65 81.85C324.917 81.1167 323.684 80.75 321.95 80.75C320.984 80.75 319.934 80.8667 318.8 81.1C317.7 81.3333 316.534 81.7333 315.3 82.3C314.667 82.6 314.1 82.6833 313.6 82.55C313.134 82.4167 312.767 82.15 312.5 81.75C312.234 81.3167 312.1 80.85 312.1 80.35C312.1 79.85 312.234 79.3667 312.5 78.9C312.767 78.4 313.217 78.0333 313.85 77.8C315.384 77.1667 316.85 76.7167 318.25 76.45C319.684 76.1833 320.984 76.05 322.15 76.05C324.55 76.05 326.517 76.4167 328.05 77.15C329.617 77.8833 330.784 79 331.55 80.5C332.317 81.9667 332.7 83.8667 332.7 86.2V98.2C332.7 99.2333 332.45 100.033 331.95 100.6C331.45 101.133 330.734 101.4 329.8 101.4C328.867 101.4 328.134 101.133 327.6 100.6C327.1 100.033 326.85 99.2333 326.85 98.2V95.8H327.25C327.017 96.9667 326.55 97.9833 325.85 98.85C325.184 99.6833 324.334 100.333 323.3 100.8C322.267 101.267 321.084 101.5 319.75 101.5ZM350.244 101.5C348.077 101.5 346.261 101.133 344.794 100.4C343.361 99.6667 342.294 98.6 341.594 97.2C340.894 95.7667 340.544 94 340.544 91.9V81.25H337.944C337.144 81.25 336.527 81.05 336.094 80.65C335.661 80.2167 335.444 79.6333 335.444 78.9C335.444 78.1333 335.661 77.55 336.094 77.15C336.527 76.75 337.144 76.55 337.944 76.55H340.544V72C340.544 70.9667 340.811 70.1833 341.344 69.65C341.911 69.1167 342.694 68.85 343.694 68.85C344.694 68.85 345.461 69.1167 345.994 69.65C346.527 70.1833 346.794 70.9667 346.794 72V76.55H352.094C352.894 76.55 353.511 76.75 353.944 77.15C354.377 77.55 354.594 78.1333 354.594 78.9C354.594 79.6333 354.377 80.2167 353.944 80.65C353.511 81.05 352.894 81.25 352.094 81.25H346.794V91.55C346.794 93.15 347.144 94.35 347.844 95.15C348.544 95.95 349.677 96.35 351.244 96.35C351.811 96.35 352.311 96.3 352.744 96.2C353.177 96.1 353.561 96.0333 353.894 96C354.294 95.9667 354.627 96.1 354.894 96.4C355.161 96.6667 355.294 97.2333 355.294 98.1C355.294 98.7667 355.177 99.3667 354.944 99.9C354.744 100.4 354.361 100.75 353.794 100.95C353.361 101.083 352.794 101.2 352.094 101.3C351.394 101.433 350.777 101.5 350.244 101.5ZM375.808 101C374.708 101 373.858 100.717 373.258 100.15C372.691 99.55 372.408 98.7 372.408 97.6V69.15C372.408 68.05 372.691 67.2167 373.258 66.65C373.858 66.05 374.708 65.75 375.808 65.75H387.808C390.274 65.75 392.374 66.1167 394.108 66.85C395.841 67.5833 397.158 68.6333 398.058 70C398.991 71.3667 399.458 73 399.458 74.9C399.458 77.0333 398.841 78.8333 397.608 80.3C396.374 81.7667 394.691 82.75 392.558 83.25V82.5C395.024 82.8667 396.941 83.8 398.308 85.3C399.674 86.8 400.358 88.75 400.358 91.15C400.358 94.2833 399.291 96.7167 397.158 98.45C395.058 100.15 392.124 101 388.358 101H375.808ZM378.558 96.15H387.558C389.824 96.15 391.491 95.7167 392.558 94.85C393.624 93.95 394.158 92.6167 394.158 90.85C394.158 89.05 393.624 87.7167 392.558 86.85C391.491 85.9833 389.824 85.55 387.558 85.55H378.558V96.15ZM378.558 80.7H386.708C388.908 80.7 390.541 80.2833 391.608 79.45C392.708 78.5833 393.258 77.3167 393.258 75.65C393.258 73.9833 392.708 72.7333 391.608 71.9C390.541 71.0333 388.908 70.6 386.708 70.6H378.558V80.7ZM414.281 101.5C412.515 101.5 410.931 101.167 409.531 100.5C408.165 99.8 407.081 98.8667 406.281 97.7C405.515 96.5333 405.131 95.2167 405.131 93.75C405.131 91.95 405.598 90.5333 406.531 89.5C407.465 88.4333 408.981 87.6667 411.081 87.2C413.181 86.7333 415.998 86.5 419.531 86.5H422.031V90.1H419.581C417.515 90.1 415.865 90.2 414.631 90.4C413.398 90.6 412.515 90.95 411.981 91.45C411.481 91.9167 411.231 92.5833 411.231 93.45C411.231 94.55 411.615 95.45 412.381 96.15C413.148 96.85 414.215 97.2 415.581 97.2C416.681 97.2 417.648 96.95 418.481 96.45C419.348 95.9167 420.031 95.2 420.531 94.3C421.031 93.4 421.281 92.3667 421.281 91.2V85.45C421.281 83.7833 420.915 82.5833 420.181 81.85C419.448 81.1167 418.215 80.75 416.481 80.75C415.515 80.75 414.465 80.8667 413.331 81.1C412.231 81.3333 411.065 81.7333 409.831 82.3C409.198 82.6 408.631 82.6833 408.131 82.55C407.665 82.4167 407.298 82.15 407.031 81.75C406.765 81.3167 406.631 80.85 406.631 80.35C406.631 79.85 406.765 79.3667 407.031 78.9C407.298 78.4 407.748 78.0333 408.381 77.8C409.915 77.1667 411.381 76.7167 412.781 76.45C414.215 76.1833 415.515 76.05 416.681 76.05C419.081 76.05 421.048 76.4167 422.581 77.15C424.148 77.8833 425.315 79 426.081 80.5C426.848 81.9667 427.231 83.8667 427.231 86.2V98.2C427.231 99.2333 426.981 100.033 426.481 100.6C425.981 101.133 425.265 101.4 424.331 101.4C423.398 101.4 422.665 101.133 422.131 100.6C421.631 100.033 421.381 99.2333 421.381 98.2V95.8H421.781C421.548 96.9667 421.081 97.9833 420.381 98.85C419.715 99.6833 418.865 100.333 417.831 100.8C416.798 101.267 415.615 101.5 414.281 101.5ZM436.775 101.4C435.742 101.4 434.942 101.133 434.375 100.6C433.842 100.033 433.575 99.2333 433.575 98.2V79.3C433.575 78.2667 433.842 77.4833 434.375 76.95C434.909 76.4167 435.659 76.15 436.625 76.15C437.592 76.15 438.342 76.4167 438.875 76.95C439.409 77.4833 439.675 78.2667 439.675 79.3V82.45H439.175C439.642 80.45 440.559 78.9333 441.925 77.9C443.292 76.8667 445.109 76.25 447.375 76.05C448.075 75.9833 448.625 76.1667 449.025 76.6C449.459 77 449.709 77.6333 449.775 78.5C449.842 79.3333 449.642 80.0167 449.175 80.55C448.742 81.05 448.075 81.35 447.175 81.45L446.075 81.55C444.042 81.75 442.509 82.3833 441.475 83.45C440.442 84.4833 439.925 85.95 439.925 87.85V98.2C439.925 99.2333 439.659 100.033 439.125 100.6C438.592 101.133 437.809 101.4 436.775 101.4Z" fill="black"/>
<path d="M426.055 40.4414H138.945C137.334 40.4414 136.016 40.7473 136.016 41.1211V45.8789C136.016 46.2527 137.334 46.5586 138.945 46.5586H426.055C427.666 46.5586 428.984 46.2527 428.984 45.8789V41.1211C428.984 40.7473 427.666 40.4414 426.055 40.4414Z" fill="black"/>
<g clip-path="url(#clip0_1_209)">
<path fill-rule="evenodd" clip-rule="evenodd" d="M469.005 42.9913L468.397 40.8551C467.439 37.4895 463.16 36.4105 460.285 38.7895C458.971 39.879 457.79 41.8757 457.741 45.2467C457.69 48.4492 458.678 52.8462 461.586 58.5468C467.844 57.2158 471.883 55.2167 474.341 53.1648C476.93 51.0051 477.74 48.8312 477.757 47.1258C477.798 43.3924 474.266 40.746 471.048 42.1193L469.005 42.9913ZM459.825 59.9067C447.144 35.2195 467.086 30.4145 470.284 39.686C470.328 39.8093 470.367 39.9359 470.403 40.0656C470.526 40.0117 470.649 39.9627 470.772 39.9187C479.992 36.5704 488.802 55.0918 461.636 60.7707L461.615 61.9329C461.614 62.006 461.599 62.079 461.571 62.148C461.544 62.2171 461.504 62.2806 461.454 62.3351C461.405 62.3896 461.346 62.434 461.282 62.4657C461.218 62.4974 461.15 62.5159 461.081 62.5199C461.012 62.524 460.945 62.5137 460.882 62.4895C460.819 62.4654 460.762 62.4279 460.715 62.3791C460.667 62.3304 460.63 62.2714 460.605 62.2055C460.58 62.1396 460.568 62.0682 460.569 61.9952L460.571 61.9534C460.479 62.185 460.411 62.3833 460.357 62.5779C460.194 63.1765 460.18 63.7158 460.155 64.9942C460.125 66.4278 459.47 67.5484 458.71 68.3858C457.963 69.2046 457.086 69.7832 456.538 70.143L456.523 70.1538C456.463 70.1934 456.397 70.2206 456.329 70.2338C456.26 70.247 456.191 70.2458 456.126 70.2305C456.06 70.2152 455.999 70.1859 455.945 70.1445C455.892 70.103 455.848 70.05 455.815 69.9887C455.782 69.9274 455.762 69.8588 455.755 69.787C455.747 69.7152 455.754 69.6414 455.773 69.57C455.793 69.4986 455.825 69.4309 455.868 69.3708C455.912 69.3107 455.965 69.2594 456.025 69.2197C456.581 68.8535 457.349 68.3478 457.987 67.6426C458.618 66.9516 459.09 66.1046 459.109 65.0565L459.112 64.9879C459.136 63.7967 459.148 63.1059 459.357 62.3439C459.45 62.016 459.564 61.6937 459.699 61.3797L459.547 61.5077C459.491 61.5553 459.428 61.5914 459.361 61.6138C459.294 61.6363 459.225 61.6448 459.157 61.6387C459.088 61.6326 459.023 61.6121 458.965 61.5784C458.906 61.5447 458.855 61.4984 458.815 61.4422C458.775 61.3861 458.746 61.3211 458.731 61.2511C458.715 61.1811 458.713 61.1075 458.725 61.0345C458.736 60.9614 458.761 60.8904 458.798 60.8255C458.835 60.7607 458.883 60.7032 458.939 60.6565L459.829 59.9085L459.825 59.9067ZM465.683 40.505C464.659 39.5655 462.861 39.367 461.487 40.5027C460.994 40.9138 460.364 41.6929 460.04 43.1567C459.919 43.7102 460.612 43.9258 460.982 43.4983C462.048 42.2609 463.549 41.0979 465.14 41.2432C465.613 41.2855 466.03 40.8234 465.683 40.505Z" fill="black"/>
</g>
<path d="M81.6528 50.6731H54.8724C54.1622 50.6731 53.481 50.9552 52.9788 51.4575C52.4766 51.9597 52.1944 52.6409 52.1944 53.3511V64.0633C52.2009 67.857 53.5484 71.5263 55.9987 74.4225C58.449 77.3188 61.8444 79.2555 65.5846 79.8905V96.1997H57.5505V101.556H78.9748V96.1997H70.9406V79.8905C74.6809 79.2555 78.0762 77.3188 80.5265 74.4225C82.9768 71.5263 84.3243 67.857 84.3308 64.0633V53.3511C84.3308 52.6409 84.0487 51.9597 83.5464 51.4575C83.0442 50.9552 82.363 50.6731 81.6528 50.6731ZM78.9748 64.0633C78.9748 66.9043 77.8462 69.629 75.8372 71.6379C73.8283 73.6468 71.1036 74.7754 68.2626 74.7754C65.4216 74.7754 62.6969 73.6468 60.688 71.6379C58.6791 69.629 57.5505 66.9043 57.5505 64.0633V56.0292H78.9748V64.0633Z" fill="black"/>
<path d="M54.8724 23.8928H41.4823C40.772 23.8928 40.0908 24.1749 39.5886 24.6771C39.0864 25.1794 38.8042 25.8605 38.8042 26.5708V46.3079C36.2019 47.8325 34.0733 50.0487 32.655 52.7104C31.2367 55.3721 30.5842 58.375 30.7701 61.3852V98.8777C30.7701 99.588 31.0523 100.269 31.5545 100.771C32.0567 101.274 32.7379 101.556 33.4482 101.556H46.8383V96.1997H36.1262V61.3852C36.1262 52.8477 42.1009 50.6195 42.3285 50.5365L44.1603 49.9233V29.2488H52.1944V42.639H57.5505V26.5708C57.5505 25.8605 57.2683 25.1794 56.7661 24.6771C56.2639 24.1749 55.5827 23.8928 54.8724 23.8928Z" fill="black"/>
<path d="M135.833 45.3333H144.333L116 19.8333L87.6667 45.3333H96.1667L116 27.455L135.833 45.3333ZM101.833 24.9617V19.8333H93.3333V32.5833L101.833 24.9617Z" fill="black"/>
<defs>
<clipPath id="clip0_1_209">
<rect width="32.7631" height="36.1781" fill="white" transform="translate(456.575 31) rotate(25.5)"/>
</clipPath>
</defs>
</svg>
