<svg width="231" height="84" viewBox="0 0 231 84" fill="none" xmlns="http://www.w3.org/2000/svg">
<rect x="2" y="2" width="227" height="80" rx="12" fill="#FFCCCC" stroke="black" stroke-width="4"/>
<path d="M78.5869 54.304C77.8522 54.304 77.2822 54.1013 76.8769 53.696C76.4969 53.2907 76.3069 52.708 76.3069 51.948V29.338C76.3069 28.5527 76.4969 27.9573 76.8769 27.552C77.2822 27.1213 77.8015 26.906 78.4349 26.906C79.0175 26.906 79.4482 27.02 79.7269 27.248C80.0309 27.4507 80.3855 27.8053 80.7909 28.312L95.3449 47.198H94.3569V29.224C94.3569 28.4893 94.5469 27.9193 94.9269 27.514C95.3322 27.1087 95.9022 26.906 96.6369 26.906C97.3715 26.906 97.9289 27.1087 98.3089 27.514C98.6889 27.9193 98.8789 28.4893 98.8789 29.224V52.024C98.8789 52.7333 98.7015 53.2907 98.3469 53.696C97.9922 54.1013 97.5109 54.304 96.9029 54.304C96.3202 54.304 95.8515 54.19 95.4969 53.962C95.1675 53.734 94.8002 53.3667 94.3949 52.86L79.8789 33.974H80.8289V51.948C80.8289 52.708 80.6389 53.2907 80.2589 53.696C79.8789 54.1013 79.3215 54.304 78.5869 54.304ZM113.435 54.38C111.332 54.38 109.521 53.9873 108.001 53.202C106.481 52.4167 105.303 51.302 104.467 49.858C103.656 48.414 103.251 46.704 103.251 44.728C103.251 42.8027 103.643 41.118 104.429 39.674C105.239 38.23 106.341 37.1027 107.735 36.292C109.153 35.456 110.762 35.038 112.561 35.038C113.878 35.038 115.056 35.2533 116.095 35.684C117.159 36.1147 118.058 36.7353 118.793 37.546C119.553 38.3567 120.123 39.3447 120.503 40.51C120.908 41.65 121.111 42.942 121.111 44.386C121.111 44.842 120.946 45.1967 120.617 45.45C120.313 45.678 119.869 45.792 119.287 45.792H107.089V43.056H117.767L117.159 43.626C117.159 42.4607 116.981 41.4853 116.627 40.7C116.297 39.9147 115.803 39.3193 115.145 38.914C114.511 38.4833 113.713 38.268 112.751 38.268C111.687 38.268 110.775 38.5213 110.015 39.028C109.28 39.5093 108.71 40.206 108.305 41.118C107.925 42.0047 107.735 43.0687 107.735 44.31V44.576C107.735 46.6533 108.216 48.2113 109.179 49.25C110.167 50.2633 111.611 50.77 113.511 50.77C114.169 50.77 114.904 50.694 115.715 50.542C116.551 50.3647 117.336 50.0733 118.071 49.668C118.603 49.364 119.071 49.2373 119.477 49.288C119.882 49.3133 120.199 49.4527 120.427 49.706C120.68 49.9593 120.832 50.276 120.883 50.656C120.933 51.0107 120.857 51.378 120.655 51.758C120.477 52.138 120.161 52.4673 119.705 52.746C118.818 53.3033 117.792 53.7213 116.627 54C115.487 54.2533 114.423 54.38 113.435 54.38ZM126.053 54.19C125.496 54.19 125.027 54.038 124.647 53.734C124.292 53.4047 124.102 52.9867 124.077 52.48C124.077 51.9733 124.292 51.4413 124.723 50.884L130.879 43.284V45.526L125.103 38.42C124.647 37.8627 124.432 37.3307 124.457 36.824C124.482 36.3173 124.672 35.912 125.027 35.608C125.407 35.2787 125.876 35.114 126.433 35.114C127.016 35.114 127.497 35.2153 127.877 35.418C128.282 35.6207 128.65 35.9373 128.979 36.368L133.539 42.22H131.867L136.465 36.368C136.82 35.9373 137.187 35.6207 137.567 35.418C137.947 35.2153 138.416 35.114 138.973 35.114C139.556 35.114 140.024 35.2787 140.379 35.608C140.734 35.9373 140.911 36.3553 140.911 36.862C140.936 37.3687 140.721 37.9007 140.265 38.458L134.527 45.488V43.36L140.683 50.884C141.139 51.416 141.354 51.9353 141.329 52.442C141.304 52.9487 141.101 53.3667 140.721 53.696C140.366 54.0253 139.898 54.19 139.315 54.19C138.758 54.19 138.289 54.0887 137.909 53.886C137.529 53.6833 137.162 53.3667 136.807 52.936L131.867 46.704H133.463L128.561 52.936C128.232 53.3413 127.877 53.658 127.497 53.886C127.117 54.0887 126.636 54.19 126.053 54.19ZM154.017 54.38C152.37 54.38 150.99 54.1013 149.875 53.544C148.786 52.9867 147.975 52.176 147.443 51.112C146.911 50.0227 146.645 48.68 146.645 47.084V38.99H144.669C144.061 38.99 143.592 38.838 143.263 38.534C142.934 38.2047 142.769 37.7613 142.769 37.204C142.769 36.6213 142.934 36.178 143.263 35.874C143.592 35.57 144.061 35.418 144.669 35.418H146.645V31.96C146.645 31.1747 146.848 30.5793 147.253 30.174C147.684 29.7687 148.279 29.566 149.039 29.566C149.799 29.566 150.382 29.7687 150.787 30.174C151.192 30.5793 151.395 31.1747 151.395 31.96V35.418H155.423C156.031 35.418 156.5 35.57 156.829 35.874C157.158 36.178 157.323 36.6213 157.323 37.204C157.323 37.7613 157.158 38.2047 156.829 38.534C156.5 38.838 156.031 38.99 155.423 38.99H151.395V46.818C151.395 48.034 151.661 48.946 152.193 49.554C152.725 50.162 153.586 50.466 154.777 50.466C155.208 50.466 155.588 50.428 155.917 50.352C156.246 50.276 156.538 50.2253 156.791 50.2C157.095 50.1747 157.348 50.276 157.551 50.504C157.754 50.7067 157.855 51.1373 157.855 51.796C157.855 52.3027 157.766 52.7587 157.589 53.164C157.437 53.544 157.146 53.81 156.715 53.962C156.386 54.0633 155.955 54.152 155.423 54.228C154.891 54.3293 154.422 54.38 154.017 54.38Z" fill="black"/>
</svg>
