<svg width="545" height="473" viewBox="0 0 545 473" fill="none" xmlns="http://www.w3.org/2000/svg">
<g filter="url(#filter0_d_2_313)">
<rect x="6" width="533" height="456" rx="47" fill="#FF7A7A"/>
<rect x="8" y="2" width="529" height="452" rx="45" stroke="black" stroke-width="4"/>
</g>
<rect x="48" y="43" width="227" height="79" rx="18" fill="#FFCCCC" stroke="black" stroke-width="4"/>
<rect x="48" y="149" width="431" height="263" rx="18" fill="#FFCCCC" stroke="black" stroke-width="4"/>
<path d="M81.94 243.28C81.38 243.28 80.925 243.152 80.575 242.895C80.2483 242.638 80.05 242.3 79.98 241.88C79.91 241.437 79.9917 240.947 80.225 240.41L89.465 219.935C89.7683 219.258 90.13 218.78 90.55 218.5C90.9933 218.197 91.495 218.045 92.055 218.045C92.5917 218.045 93.07 218.197 93.49 218.5C93.9333 218.78 94.3067 219.258 94.61 219.935L103.885 240.41C104.142 240.947 104.235 241.437 104.165 241.88C104.095 242.323 103.897 242.673 103.57 242.93C103.243 243.163 102.812 243.28 102.275 243.28C101.622 243.28 101.108 243.128 100.735 242.825C100.385 242.498 100.07 242.008 99.79 241.355L97.515 236.07L99.405 237.295H84.635L86.525 236.07L84.285 241.355C83.9817 242.032 83.6667 242.522 83.34 242.825C83.0133 243.128 82.5467 243.28 81.94 243.28ZM91.985 223.19L87.085 234.845L86.175 233.725H97.865L96.99 234.845L92.055 223.19H91.985ZM115.129 249.65C113.869 249.65 112.644 249.533 111.454 249.3C110.287 249.067 109.226 248.705 108.269 248.215C107.826 247.982 107.522 247.702 107.359 247.375C107.219 247.048 107.172 246.71 107.219 246.36C107.289 246.033 107.429 245.742 107.639 245.485C107.872 245.228 108.152 245.053 108.479 244.96C108.806 244.867 109.144 244.913 109.494 245.1C110.521 245.613 111.489 245.94 112.399 246.08C113.332 246.243 114.126 246.325 114.779 246.325C116.342 246.325 117.509 245.94 118.279 245.17C119.072 244.423 119.469 243.303 119.469 241.81V238.66H119.784C119.434 239.85 118.699 240.807 117.579 241.53C116.482 242.23 115.234 242.58 113.834 242.58C112.294 242.58 110.952 242.23 109.809 241.53C108.666 240.807 107.779 239.803 107.149 238.52C106.519 237.237 106.204 235.743 106.204 234.04C106.204 232.757 106.379 231.602 106.729 230.575C107.102 229.525 107.616 228.627 108.269 227.88C108.946 227.133 109.751 226.562 110.684 226.165C111.641 225.745 112.691 225.535 113.834 225.535C115.281 225.535 116.541 225.897 117.614 226.62C118.711 227.32 119.422 228.253 119.749 229.42L119.399 230.295V227.81C119.399 227.087 119.586 226.538 119.959 226.165C120.356 225.792 120.892 225.605 121.569 225.605C122.269 225.605 122.806 225.792 123.179 226.165C123.552 226.538 123.739 227.087 123.739 227.81V241.285C123.739 244.062 123.004 246.15 121.534 247.55C120.064 248.95 117.929 249.65 115.129 249.65ZM115.024 239.255C115.934 239.255 116.716 239.045 117.369 238.625C118.022 238.205 118.524 237.61 118.874 236.84C119.247 236.047 119.434 235.113 119.434 234.04C119.434 232.43 119.037 231.17 118.244 230.26C117.451 229.327 116.377 228.86 115.024 228.86C114.114 228.86 113.332 229.07 112.679 229.49C112.026 229.91 111.512 230.505 111.139 231.275C110.789 232.045 110.614 232.967 110.614 234.04C110.614 235.65 111.011 236.922 111.804 237.855C112.597 238.788 113.671 239.255 115.024 239.255ZM136.707 243.35C134.77 243.35 133.102 242.988 131.702 242.265C130.302 241.542 129.217 240.515 128.447 239.185C127.7 237.855 127.327 236.28 127.327 234.46C127.327 232.687 127.689 231.135 128.412 229.805C129.159 228.475 130.174 227.437 131.457 226.69C132.764 225.92 134.245 225.535 135.902 225.535C137.115 225.535 138.2 225.733 139.157 226.13C140.137 226.527 140.965 227.098 141.642 227.845C142.342 228.592 142.867 229.502 143.217 230.575C143.59 231.625 143.777 232.815 143.777 234.145C143.777 234.565 143.625 234.892 143.322 235.125C143.042 235.335 142.634 235.44 142.097 235.44H130.862V232.92H140.697L140.137 233.445C140.137 232.372 139.974 231.473 139.647 230.75C139.344 230.027 138.889 229.478 138.282 229.105C137.699 228.708 136.964 228.51 136.077 228.51C135.097 228.51 134.257 228.743 133.557 229.21C132.88 229.653 132.355 230.295 131.982 231.135C131.632 231.952 131.457 232.932 131.457 234.075V234.32C131.457 236.233 131.9 237.668 132.787 238.625C133.697 239.558 135.027 240.025 136.777 240.025C137.384 240.025 138.06 239.955 138.807 239.815C139.577 239.652 140.3 239.383 140.977 239.01C141.467 238.73 141.899 238.613 142.272 238.66C142.645 238.683 142.937 238.812 143.147 239.045C143.38 239.278 143.52 239.57 143.567 239.92C143.614 240.247 143.544 240.585 143.357 240.935C143.194 241.285 142.902 241.588 142.482 241.845C141.665 242.358 140.72 242.743 139.647 243C138.597 243.233 137.617 243.35 136.707 243.35ZM149.342 243.175C148.548 243.175 147.907 242.93 147.417 242.44C146.95 241.95 146.717 241.32 146.717 240.55C146.717 239.803 146.95 239.197 147.417 238.73C147.907 238.24 148.548 237.995 149.342 237.995C150.158 237.995 150.788 238.24 151.232 238.73C151.698 239.197 151.932 239.803 151.932 240.55C151.932 241.32 151.698 241.95 151.232 242.44C150.788 242.93 150.158 243.175 149.342 243.175ZM149.342 230.89C148.548 230.89 147.907 230.645 147.417 230.155C146.95 229.665 146.717 229.047 146.717 228.3C146.717 227.53 146.95 226.912 147.417 226.445C147.907 225.955 148.548 225.71 149.342 225.71C150.158 225.71 150.788 225.955 151.232 226.445C151.698 226.912 151.932 227.53 151.932 228.3C151.932 229.047 151.698 229.665 151.232 230.155C150.788 230.645 150.158 230.89 149.342 230.89ZM173.16 243.35C171.9 243.35 170.594 243.187 169.24 242.86C167.887 242.533 166.709 242.043 165.705 241.39C165.239 241.087 164.924 240.737 164.76 240.34C164.597 239.943 164.55 239.57 164.62 239.22C164.714 238.847 164.889 238.532 165.145 238.275C165.425 238.018 165.764 237.867 166.16 237.82C166.58 237.773 167.035 237.878 167.525 238.135C168.482 238.648 169.404 239.022 170.29 239.255C171.177 239.465 172.087 239.57 173.02 239.57C174.047 239.57 174.91 239.43 175.61 239.15C176.31 238.87 176.835 238.45 177.185 237.89C177.559 237.33 177.745 236.653 177.745 235.86C177.745 234.693 177.349 233.83 176.555 233.27C175.785 232.687 174.654 232.395 173.16 232.395H170.92C170.267 232.395 169.765 232.232 169.415 231.905C169.089 231.578 168.925 231.123 168.925 230.54C168.925 229.957 169.089 229.502 169.415 229.175C169.765 228.848 170.267 228.685 170.92 228.685H172.74C173.627 228.685 174.385 228.545 175.015 228.265C175.645 227.962 176.135 227.542 176.485 227.005C176.835 226.468 177.01 225.815 177.01 225.045C177.01 223.972 176.649 223.155 175.925 222.595C175.225 222.035 174.199 221.755 172.845 221.755C171.982 221.755 171.165 221.86 170.395 222.07C169.649 222.257 168.82 222.618 167.91 223.155C167.49 223.412 167.082 223.517 166.685 223.47C166.312 223.423 165.997 223.272 165.74 223.015C165.484 222.758 165.309 222.455 165.215 222.105C165.122 221.732 165.145 221.358 165.285 220.985C165.425 220.588 165.717 220.25 166.16 219.97C167.164 219.317 168.272 218.827 169.485 218.5C170.699 218.15 171.947 217.975 173.23 217.975C174.934 217.975 176.392 218.243 177.605 218.78C178.819 219.293 179.74 220.04 180.37 221.02C181.024 221.977 181.35 223.143 181.35 224.52C181.35 225.5 181.164 226.398 180.79 227.215C180.417 228.008 179.892 228.685 179.215 229.245C178.539 229.805 177.722 230.202 176.765 230.435V230.015C178.445 230.295 179.752 230.995 180.685 232.115C181.619 233.212 182.085 234.588 182.085 236.245C182.085 237.692 181.724 238.952 181 240.025C180.277 241.098 179.25 241.927 177.92 242.51C176.59 243.07 175.004 243.35 173.16 243.35ZM195.547 243.35C193.517 243.35 191.778 242.872 190.332 241.915C188.908 240.935 187.823 239.535 187.077 237.715C186.33 235.895 185.957 233.69 185.957 231.1C185.957 229 186.19 227.145 186.657 225.535C187.147 223.902 187.847 222.525 188.757 221.405C189.667 220.285 190.775 219.433 192.082 218.85C193.412 218.267 194.905 217.975 196.562 217.975C197.588 217.975 198.627 218.138 199.677 218.465C200.75 218.768 201.753 219.235 202.687 219.865C203.06 220.098 203.305 220.402 203.422 220.775C203.538 221.148 203.55 221.522 203.457 221.895C203.387 222.245 203.223 222.56 202.967 222.84C202.733 223.097 202.43 223.26 202.057 223.33C201.683 223.377 201.275 223.272 200.832 223.015C200.038 222.548 199.292 222.222 198.592 222.035C197.892 221.848 197.192 221.755 196.492 221.755C195.138 221.755 193.995 222.07 193.062 222.7C192.128 223.33 191.417 224.275 190.927 225.535C190.46 226.795 190.227 228.37 190.227 230.26V232.885H189.807C189.993 231.695 190.378 230.68 190.962 229.84C191.568 228.977 192.338 228.323 193.272 227.88C194.205 227.413 195.243 227.18 196.387 227.18C197.81 227.18 199.07 227.518 200.167 228.195C201.263 228.872 202.127 229.805 202.757 230.995C203.387 232.185 203.702 233.55 203.702 235.09C203.702 236.677 203.352 238.1 202.652 239.36C201.975 240.597 201.018 241.577 199.782 242.3C198.568 243 197.157 243.35 195.547 243.35ZM195.302 239.78C196.142 239.78 196.877 239.593 197.507 239.22C198.16 238.847 198.662 238.322 199.012 237.645C199.362 236.945 199.537 236.152 199.537 235.265C199.537 234.355 199.362 233.562 199.012 232.885C198.662 232.208 198.16 231.683 197.507 231.31C196.877 230.913 196.142 230.715 195.302 230.715C194.462 230.715 193.727 230.913 193.097 231.31C192.467 231.683 191.965 232.208 191.592 232.885C191.242 233.562 191.067 234.355 191.067 235.265C191.067 236.152 191.242 236.945 191.592 237.645C191.965 238.322 192.467 238.847 193.097 239.22C193.727 239.593 194.462 239.78 195.302 239.78ZM209.778 243C209.031 243 208.483 242.837 208.133 242.51C207.806 242.16 207.643 241.658 207.643 241.005C207.643 240.608 207.748 240.223 207.958 239.85C208.168 239.477 208.471 239.08 208.868 238.66L215.903 231.17C216.976 230.05 217.746 229.035 218.213 228.125C218.68 227.192 218.913 226.258 218.913 225.325C218.913 224.158 218.54 223.272 217.793 222.665C217.07 222.058 216.008 221.755 214.608 221.755C213.815 221.755 213.021 221.872 212.228 222.105C211.435 222.315 210.63 222.688 209.813 223.225C209.393 223.505 208.996 223.622 208.623 223.575C208.273 223.528 207.958 223.377 207.678 223.12C207.421 222.863 207.246 222.548 207.153 222.175C207.06 221.802 207.071 221.428 207.188 221.055C207.328 220.658 207.608 220.32 208.028 220.04C209.031 219.363 210.151 218.85 211.388 218.5C212.648 218.15 213.908 217.975 215.168 217.975C216.941 217.975 218.435 218.243 219.648 218.78C220.861 219.317 221.783 220.098 222.413 221.125C223.043 222.152 223.358 223.4 223.358 224.87C223.358 225.85 223.195 226.807 222.868 227.74C222.565 228.673 222.086 229.618 221.433 230.575C220.803 231.532 219.975 232.547 218.948 233.62L212.368 240.48V239.29H222.658C223.288 239.29 223.766 239.442 224.093 239.745C224.42 240.048 224.583 240.503 224.583 241.11C224.583 241.717 224.42 242.183 224.093 242.51C223.766 242.837 223.288 243 222.658 243H209.778ZM242.226 249.58C241.713 249.58 241.293 249.44 240.966 249.16C240.64 248.903 240.441 248.553 240.371 248.11C240.325 247.667 240.406 247.2 240.616 246.71L242.996 241.425V243.245L236.626 228.51C236.416 227.997 236.346 227.518 236.416 227.075C236.486 226.632 236.696 226.282 237.046 226.025C237.42 225.745 237.921 225.605 238.551 225.605C239.088 225.605 239.52 225.733 239.846 225.99C240.173 226.223 240.465 226.678 240.721 227.355L245.446 239.15H244.396L249.226 227.32C249.483 226.667 249.786 226.223 250.136 225.99C250.486 225.733 250.953 225.605 251.536 225.605C252.05 225.605 252.458 225.745 252.761 226.025C253.065 226.282 253.251 226.632 253.321 227.075C253.391 227.495 253.31 227.962 253.076 228.475L244.571 247.9C244.268 248.553 243.941 248.997 243.591 249.23C243.241 249.463 242.786 249.58 242.226 249.58ZM258.549 243.28C257.826 243.28 257.266 243.093 256.869 242.72C256.496 242.323 256.309 241.763 256.309 241.04V227.81C256.309 227.087 256.496 226.538 256.869 226.165C257.243 225.792 257.768 225.605 258.444 225.605C259.121 225.605 259.646 225.792 260.019 226.165C260.393 226.538 260.579 227.087 260.579 227.81V230.015H260.229C260.556 228.615 261.198 227.553 262.154 226.83C263.111 226.107 264.383 225.675 265.969 225.535C266.459 225.488 266.844 225.617 267.124 225.92C267.428 226.2 267.603 226.643 267.649 227.25C267.696 227.833 267.556 228.312 267.229 228.685C266.926 229.035 266.459 229.245 265.829 229.315L265.059 229.385C263.636 229.525 262.563 229.968 261.839 230.715C261.116 231.438 260.754 232.465 260.754 233.795V241.04C260.754 241.763 260.568 242.323 260.194 242.72C259.821 243.093 259.273 243.28 258.549 243.28ZM276.109 243.35C275.106 243.35 274.044 243.245 272.924 243.035C271.804 242.825 270.801 242.463 269.914 241.95C269.541 241.717 269.273 241.448 269.109 241.145C268.969 240.818 268.911 240.503 268.934 240.2C268.981 239.873 269.098 239.593 269.284 239.36C269.494 239.127 269.751 238.975 270.054 238.905C270.381 238.835 270.731 238.893 271.104 239.08C272.038 239.523 272.913 239.838 273.729 240.025C274.546 240.188 275.351 240.27 276.144 240.27C277.264 240.27 278.093 240.083 278.629 239.71C279.189 239.313 279.469 238.8 279.469 238.17C279.469 237.633 279.283 237.225 278.909 236.945C278.559 236.642 278.023 236.42 277.299 236.28L273.799 235.615C272.353 235.335 271.244 234.81 270.474 234.04C269.728 233.247 269.354 232.232 269.354 230.995C269.354 229.875 269.658 228.907 270.264 228.09C270.894 227.273 271.758 226.643 272.854 226.2C273.951 225.757 275.211 225.535 276.634 225.535C277.661 225.535 278.618 225.652 279.504 225.885C280.414 226.095 281.289 226.433 282.129 226.9C282.479 227.087 282.713 227.332 282.829 227.635C282.969 227.938 283.004 228.253 282.934 228.58C282.864 228.883 282.724 229.163 282.514 229.42C282.304 229.653 282.036 229.805 281.709 229.875C281.406 229.922 281.056 229.852 280.659 229.665C279.936 229.292 279.236 229.023 278.559 228.86C277.906 228.697 277.276 228.615 276.669 228.615C275.526 228.615 274.674 228.813 274.114 229.21C273.578 229.607 273.309 230.132 273.309 230.785C273.309 231.275 273.473 231.683 273.799 232.01C274.126 232.337 274.628 232.558 275.304 232.675L278.804 233.34C280.321 233.62 281.464 234.133 282.234 234.88C283.028 235.627 283.424 236.63 283.424 237.89C283.424 239.593 282.759 240.935 281.429 241.915C280.099 242.872 278.326 243.35 276.109 243.35ZM304.241 243.35C302.468 243.35 300.928 242.988 299.621 242.265C298.314 241.542 297.299 240.515 296.576 239.185C295.853 237.832 295.491 236.245 295.491 234.425C295.491 233.048 295.689 231.823 296.086 230.75C296.506 229.653 297.101 228.72 297.871 227.95C298.641 227.157 299.563 226.562 300.636 226.165C301.709 225.745 302.911 225.535 304.241 225.535C306.014 225.535 307.554 225.897 308.861 226.62C310.168 227.343 311.183 228.37 311.906 229.7C312.629 231.03 312.991 232.605 312.991 234.425C312.991 235.802 312.781 237.038 312.361 238.135C311.964 239.232 311.381 240.177 310.611 240.97C309.841 241.74 308.919 242.335 307.846 242.755C306.773 243.152 305.571 243.35 304.241 243.35ZM304.241 240.025C305.104 240.025 305.863 239.815 306.516 239.395C307.169 238.975 307.671 238.357 308.021 237.54C308.394 236.7 308.581 235.662 308.581 234.425C308.581 232.558 308.184 231.17 307.391 230.26C306.598 229.327 305.548 228.86 304.241 228.86C303.378 228.86 302.619 229.07 301.966 229.49C301.313 229.887 300.799 230.505 300.426 231.345C300.076 232.162 299.901 233.188 299.901 234.425C299.901 236.268 300.298 237.668 301.091 238.625C301.884 239.558 302.934 240.025 304.241 240.025ZM322.447 243.35C320.51 243.35 319.052 242.802 318.072 241.705C317.092 240.585 316.602 238.952 316.602 236.805V220.25C316.602 219.527 316.789 218.978 317.162 218.605C317.535 218.232 318.072 218.045 318.772 218.045C319.472 218.045 320.009 218.232 320.382 218.605C320.779 218.978 320.977 219.527 320.977 220.25V236.595C320.977 237.668 321.199 238.462 321.642 238.975C322.109 239.488 322.762 239.745 323.602 239.745C323.789 239.745 323.964 239.745 324.127 239.745C324.29 239.722 324.454 239.698 324.617 239.675C324.944 239.628 325.165 239.722 325.282 239.955C325.399 240.165 325.457 240.608 325.457 241.285C325.457 241.868 325.34 242.323 325.107 242.65C324.874 242.977 324.489 243.175 323.952 243.245C323.719 243.268 323.474 243.292 323.217 243.315C322.96 243.338 322.704 243.35 322.447 243.35ZM334.188 243.35C332.695 243.35 331.376 242.988 330.233 242.265C329.113 241.542 328.238 240.515 327.608 239.185C326.978 237.832 326.663 236.245 326.663 234.425C326.663 232.582 326.978 231.007 327.608 229.7C328.238 228.37 329.113 227.343 330.233 226.62C331.376 225.897 332.695 225.535 334.188 225.535C335.611 225.535 336.848 225.885 337.898 226.585C338.971 227.285 339.695 228.207 340.068 229.35H339.683V220.25C339.683 219.527 339.87 218.978 340.243 218.605C340.616 218.232 341.153 218.045 341.853 218.045C342.553 218.045 343.09 218.232 343.463 218.605C343.86 218.978 344.058 219.527 344.058 220.25V241.04C344.058 241.763 343.871 242.323 343.498 242.72C343.125 243.093 342.588 243.28 341.888 243.28C341.188 243.28 340.651 243.093 340.278 242.72C339.905 242.323 339.718 241.763 339.718 241.04V238.31L340.103 239.36C339.753 240.573 339.041 241.542 337.968 242.265C336.895 242.988 335.635 243.35 334.188 243.35ZM335.413 240.025C336.276 240.025 337.035 239.815 337.688 239.395C338.341 238.975 338.843 238.357 339.193 237.54C339.566 236.7 339.753 235.662 339.753 234.425C339.753 232.558 339.356 231.17 338.563 230.26C337.77 229.327 336.72 228.86 335.413 228.86C334.55 228.86 333.791 229.07 333.138 229.49C332.485 229.887 331.971 230.505 331.598 231.345C331.248 232.162 331.073 233.188 331.073 234.425C331.073 236.268 331.47 237.668 332.263 238.625C333.056 239.558 334.106 240.025 335.413 240.025ZM83.935 291.28C83.2117 291.28 82.6517 291.082 82.255 290.685C81.8817 290.265 81.695 289.693 81.695 288.97V268.6C81.695 267.853 81.8933 267.293 82.29 266.92C82.6867 266.523 83.2467 266.325 83.97 266.325H92.405C95.1117 266.325 97.2 266.978 98.67 268.285C100.14 269.568 100.875 271.377 100.875 273.71C100.875 275.227 100.537 276.533 99.86 277.63C99.2067 278.727 98.25 279.567 96.99 280.15C95.73 280.733 94.2017 281.025 92.405 281.025L92.72 280.5H93.875C94.8317 280.5 95.66 280.733 96.36 281.2C97.0833 281.667 97.7133 282.402 98.25 283.405L100.875 288.27C101.155 288.76 101.283 289.238 101.26 289.705C101.237 290.172 101.062 290.557 100.735 290.86C100.408 291.14 99.93 291.28 99.3 291.28C98.67 291.28 98.1567 291.152 97.76 290.895C97.3633 290.615 97.0133 290.195 96.71 289.635L93.175 283.125C92.755 282.332 92.2533 281.807 91.67 281.55C91.11 281.27 90.3867 281.13 89.5 281.13H86.175V288.97C86.175 289.693 85.9883 290.265 85.615 290.685C85.2417 291.082 84.6817 291.28 83.935 291.28ZM86.175 277.805H91.635C93.245 277.805 94.4583 277.478 95.275 276.825C96.115 276.148 96.535 275.145 96.535 273.815C96.535 272.508 96.115 271.528 95.275 270.875C94.4583 270.198 93.245 269.86 91.635 269.86H86.175V277.805ZM110.733 291.35C109.497 291.35 108.388 291.117 107.408 290.65C106.452 290.16 105.693 289.507 105.133 288.69C104.597 287.873 104.328 286.952 104.328 285.925C104.328 284.665 104.655 283.673 105.308 282.95C105.962 282.203 107.023 281.667 108.493 281.34C109.963 281.013 111.935 280.85 114.408 280.85H116.158V283.37H114.443C112.997 283.37 111.842 283.44 110.978 283.58C110.115 283.72 109.497 283.965 109.123 284.315C108.773 284.642 108.598 285.108 108.598 285.715C108.598 286.485 108.867 287.115 109.403 287.605C109.94 288.095 110.687 288.34 111.643 288.34C112.413 288.34 113.09 288.165 113.673 287.815C114.28 287.442 114.758 286.94 115.108 286.31C115.458 285.68 115.633 284.957 115.633 284.14V280.115C115.633 278.948 115.377 278.108 114.863 277.595C114.35 277.082 113.487 276.825 112.273 276.825C111.597 276.825 110.862 276.907 110.068 277.07C109.298 277.233 108.482 277.513 107.618 277.91C107.175 278.12 106.778 278.178 106.428 278.085C106.102 277.992 105.845 277.805 105.658 277.525C105.472 277.222 105.378 276.895 105.378 276.545C105.378 276.195 105.472 275.857 105.658 275.53C105.845 275.18 106.16 274.923 106.603 274.76C107.677 274.317 108.703 274.002 109.683 273.815C110.687 273.628 111.597 273.535 112.413 273.535C114.093 273.535 115.47 273.792 116.543 274.305C117.64 274.818 118.457 275.6 118.993 276.65C119.53 277.677 119.798 279.007 119.798 280.64V289.04C119.798 289.763 119.623 290.323 119.273 290.72C118.923 291.093 118.422 291.28 117.768 291.28C117.115 291.28 116.602 291.093 116.228 290.72C115.878 290.323 115.703 289.763 115.703 289.04V287.36H115.983C115.82 288.177 115.493 288.888 115.003 289.495C114.537 290.078 113.942 290.533 113.218 290.86C112.495 291.187 111.667 291.35 110.733 291.35ZM132.079 291.35C130.562 291.35 129.291 291.093 128.264 290.58C127.261 290.067 126.514 289.32 126.024 288.34C125.534 287.337 125.289 286.1 125.289 284.63V277.175H123.469C122.909 277.175 122.477 277.035 122.174 276.755C121.871 276.452 121.719 276.043 121.719 275.53C121.719 274.993 121.871 274.585 122.174 274.305C122.477 274.025 122.909 273.885 123.469 273.885H125.289V270.7C125.289 269.977 125.476 269.428 125.849 269.055C126.246 268.682 126.794 268.495 127.494 268.495C128.194 268.495 128.731 268.682 129.104 269.055C129.477 269.428 129.664 269.977 129.664 270.7V273.885H133.374C133.934 273.885 134.366 274.025 134.669 274.305C134.972 274.585 135.124 274.993 135.124 275.53C135.124 276.043 134.972 276.452 134.669 276.755C134.366 277.035 133.934 277.175 133.374 277.175H129.664V284.385C129.664 285.505 129.909 286.345 130.399 286.905C130.889 287.465 131.682 287.745 132.779 287.745C133.176 287.745 133.526 287.71 133.829 287.64C134.132 287.57 134.401 287.523 134.634 287.5C134.914 287.477 135.147 287.57 135.334 287.78C135.521 287.967 135.614 288.363 135.614 288.97C135.614 289.437 135.532 289.857 135.369 290.23C135.229 290.58 134.961 290.825 134.564 290.965C134.261 291.058 133.864 291.14 133.374 291.21C132.884 291.303 132.452 291.35 132.079 291.35ZM140.286 291.245C139.586 291.245 139.049 291.035 138.676 290.615C138.302 290.195 138.116 289.612 138.116 288.865V276.02C138.116 275.25 138.302 274.667 138.676 274.27C139.049 273.85 139.586 273.64 140.286 273.64C140.986 273.64 141.522 273.85 141.896 274.27C142.292 274.667 142.491 275.25 142.491 276.02V288.865C142.491 289.612 142.304 290.195 141.931 290.615C141.557 291.035 141.009 291.245 140.286 291.245ZM140.286 270.385C139.469 270.385 138.827 270.187 138.361 269.79C137.917 269.37 137.696 268.798 137.696 268.075C137.696 267.328 137.917 266.757 138.361 266.36C138.827 265.963 139.469 265.765 140.286 265.765C141.126 265.765 141.767 265.963 142.211 266.36C142.654 266.757 142.876 267.328 142.876 268.075C142.876 268.798 142.654 269.37 142.211 269.79C141.767 270.187 141.126 270.385 140.286 270.385ZM149.207 291.28C148.507 291.28 147.97 291.093 147.597 290.72C147.223 290.323 147.037 289.763 147.037 289.04V275.81C147.037 275.087 147.223 274.538 147.597 274.165C147.97 273.792 148.495 273.605 149.172 273.605C149.848 273.605 150.373 273.792 150.747 274.165C151.12 274.538 151.307 275.087 151.307 275.81V278.19L150.922 277.315C151.435 276.078 152.228 275.145 153.302 274.515C154.398 273.862 155.635 273.535 157.012 273.535C158.388 273.535 159.52 273.792 160.407 274.305C161.293 274.818 161.958 275.6 162.402 276.65C162.845 277.677 163.067 278.983 163.067 280.57V289.04C163.067 289.763 162.88 290.323 162.507 290.72C162.133 291.093 161.597 291.28 160.897 291.28C160.197 291.28 159.648 291.093 159.252 290.72C158.878 290.323 158.692 289.763 158.692 289.04V280.78C158.692 279.45 158.435 278.482 157.922 277.875C157.432 277.268 156.662 276.965 155.612 276.965C154.328 276.965 153.302 277.373 152.532 278.19C151.785 278.983 151.412 280.045 151.412 281.375V289.04C151.412 290.533 150.677 291.28 149.207 291.28ZM175.49 297.65C174.23 297.65 173.005 297.533 171.815 297.3C170.649 297.067 169.587 296.705 168.63 296.215C168.187 295.982 167.884 295.702 167.72 295.375C167.58 295.048 167.534 294.71 167.58 294.36C167.65 294.033 167.79 293.742 168 293.485C168.234 293.228 168.514 293.053 168.84 292.96C169.167 292.867 169.505 292.913 169.855 293.1C170.882 293.613 171.85 293.94 172.76 294.08C173.694 294.243 174.487 294.325 175.14 294.325C176.704 294.325 177.87 293.94 178.64 293.17C179.434 292.423 179.83 291.303 179.83 289.81V286.66H180.145C179.795 287.85 179.06 288.807 177.94 289.53C176.844 290.23 175.595 290.58 174.195 290.58C172.655 290.58 171.314 290.23 170.17 289.53C169.027 288.807 168.14 287.803 167.51 286.52C166.88 285.237 166.565 283.743 166.565 282.04C166.565 280.757 166.74 279.602 167.09 278.575C167.464 277.525 167.977 276.627 168.63 275.88C169.307 275.133 170.112 274.562 171.045 274.165C172.002 273.745 173.052 273.535 174.195 273.535C175.642 273.535 176.902 273.897 177.975 274.62C179.072 275.32 179.784 276.253 180.11 277.42L179.76 278.295V275.81C179.76 275.087 179.947 274.538 180.32 274.165C180.717 273.792 181.254 273.605 181.93 273.605C182.63 273.605 183.167 273.792 183.54 274.165C183.914 274.538 184.1 275.087 184.1 275.81V289.285C184.1 292.062 183.365 294.15 181.895 295.55C180.425 296.95 178.29 297.65 175.49 297.65ZM175.385 287.255C176.295 287.255 177.077 287.045 177.73 286.625C178.384 286.205 178.885 285.61 179.235 284.84C179.609 284.047 179.795 283.113 179.795 282.04C179.795 280.43 179.399 279.17 178.605 278.26C177.812 277.327 176.739 276.86 175.385 276.86C174.475 276.86 173.694 277.07 173.04 277.49C172.387 277.91 171.874 278.505 171.5 279.275C171.15 280.045 170.975 280.967 170.975 282.04C170.975 283.65 171.372 284.922 172.165 285.855C172.959 286.788 174.032 287.255 175.385 287.255ZM190.733 291.175C189.94 291.175 189.298 290.93 188.808 290.44C188.342 289.95 188.108 289.32 188.108 288.55C188.108 287.803 188.342 287.197 188.808 286.73C189.298 286.24 189.94 285.995 190.733 285.995C191.55 285.995 192.18 286.24 192.623 286.73C193.09 287.197 193.323 287.803 193.323 288.55C193.323 289.32 193.09 289.95 192.623 290.44C192.18 290.93 191.55 291.175 190.733 291.175ZM190.733 278.89C189.94 278.89 189.298 278.645 188.808 278.155C188.342 277.665 188.108 277.047 188.108 276.3C188.108 275.53 188.342 274.912 188.808 274.445C189.298 273.955 189.94 273.71 190.733 273.71C191.55 273.71 192.18 273.955 192.623 274.445C193.09 274.912 193.323 275.53 193.323 276.3C193.323 277.047 193.09 277.665 192.623 278.155C192.18 278.645 191.55 278.89 190.733 278.89ZM213.117 291.35C212.114 291.35 211.075 291.198 210.002 290.895C208.929 290.568 207.925 290.09 206.992 289.46C206.619 289.227 206.374 288.923 206.257 288.55C206.14 288.177 206.117 287.815 206.187 287.465C206.28 287.092 206.444 286.777 206.677 286.52C206.934 286.24 207.249 286.077 207.622 286.03C207.995 285.96 208.404 286.053 208.847 286.31C209.64 286.777 210.387 287.103 211.087 287.29C211.787 287.477 212.487 287.57 213.187 287.57C214.54 287.57 215.684 287.255 216.617 286.625C217.55 285.995 218.25 285.05 218.717 283.79C219.207 282.507 219.452 280.932 219.452 279.065V276.44H219.872C219.709 277.607 219.324 278.622 218.717 279.485C218.11 280.348 217.34 281.013 216.407 281.48C215.474 281.923 214.435 282.145 213.292 282.145C211.892 282.145 210.632 281.807 209.512 281.13C208.415 280.453 207.552 279.52 206.922 278.33C206.292 277.117 205.977 275.752 205.977 274.235C205.977 272.625 206.315 271.202 206.992 269.965C207.692 268.728 208.66 267.76 209.897 267.06C211.134 266.337 212.545 265.975 214.132 265.975C216.185 265.975 217.924 266.453 219.347 267.41C220.77 268.367 221.855 269.767 222.602 271.61C223.349 273.43 223.722 275.635 223.722 278.225C223.722 280.325 223.477 282.192 222.987 283.825C222.52 285.435 221.832 286.8 220.922 287.92C220.012 289.04 218.892 289.892 217.562 290.475C216.255 291.058 214.774 291.35 213.117 291.35ZM214.412 278.575C215.252 278.575 215.987 278.388 216.617 278.015C217.27 277.618 217.772 277.082 218.122 276.405C218.472 275.705 218.647 274.912 218.647 274.025C218.647 273.115 218.472 272.322 218.122 271.645C217.772 270.968 217.27 270.443 216.617 270.07C215.987 269.697 215.252 269.51 214.412 269.51C213.572 269.51 212.837 269.697 212.207 270.07C211.577 270.443 211.075 270.968 210.702 271.645C210.352 272.322 210.177 273.115 210.177 274.025C210.177 274.912 210.352 275.705 210.702 276.405C211.075 277.082 211.577 277.618 212.207 278.015C212.837 278.388 213.572 278.575 214.412 278.575ZM234.103 291.35C233.1 291.35 232.062 291.198 230.988 290.895C229.915 290.568 228.912 290.09 227.978 289.46C227.605 289.227 227.36 288.923 227.243 288.55C227.127 288.177 227.103 287.815 227.173 287.465C227.267 287.092 227.43 286.777 227.663 286.52C227.92 286.24 228.235 286.077 228.608 286.03C228.982 285.96 229.39 286.053 229.833 286.31C230.627 286.777 231.373 287.103 232.073 287.29C232.773 287.477 233.473 287.57 234.173 287.57C235.527 287.57 236.67 287.255 237.603 286.625C238.537 285.995 239.237 285.05 239.703 283.79C240.193 282.507 240.438 280.932 240.438 279.065V276.44H240.858C240.695 277.607 240.31 278.622 239.703 279.485C239.097 280.348 238.327 281.013 237.393 281.48C236.46 281.923 235.422 282.145 234.278 282.145C232.878 282.145 231.618 281.807 230.498 281.13C229.402 280.453 228.538 279.52 227.908 278.33C227.278 277.117 226.963 275.752 226.963 274.235C226.963 272.625 227.302 271.202 227.978 269.965C228.678 268.728 229.647 267.76 230.883 267.06C232.12 266.337 233.532 265.975 235.118 265.975C237.172 265.975 238.91 266.453 240.333 267.41C241.757 268.367 242.842 269.767 243.588 271.61C244.335 273.43 244.708 275.635 244.708 278.225C244.708 280.325 244.463 282.192 243.973 283.825C243.507 285.435 242.818 286.8 241.908 287.92C240.998 289.04 239.878 289.892 238.548 290.475C237.242 291.058 235.76 291.35 234.103 291.35ZM235.398 278.575C236.238 278.575 236.973 278.388 237.603 278.015C238.257 277.618 238.758 277.082 239.108 276.405C239.458 275.705 239.633 274.912 239.633 274.025C239.633 273.115 239.458 272.322 239.108 271.645C238.758 270.968 238.257 270.443 237.603 270.07C236.973 269.697 236.238 269.51 235.398 269.51C234.558 269.51 233.823 269.697 233.193 270.07C232.563 270.443 232.062 270.968 231.688 271.645C231.338 272.322 231.163 273.115 231.163 274.025C231.163 274.912 231.338 275.705 231.688 276.405C232.062 277.082 232.563 277.618 233.193 278.015C233.823 278.388 234.558 278.575 235.398 278.575ZM264.557 291.35C263.553 291.35 262.492 291.245 261.372 291.035C260.252 290.825 259.248 290.463 258.362 289.95C257.988 289.717 257.72 289.448 257.557 289.145C257.417 288.818 257.358 288.503 257.382 288.2C257.428 287.873 257.545 287.593 257.732 287.36C257.942 287.127 258.198 286.975 258.502 286.905C258.828 286.835 259.178 286.893 259.552 287.08C260.485 287.523 261.36 287.838 262.177 288.025C262.993 288.188 263.798 288.27 264.592 288.27C265.712 288.27 266.54 288.083 267.077 287.71C267.637 287.313 267.917 286.8 267.917 286.17C267.917 285.633 267.73 285.225 267.357 284.945C267.007 284.642 266.47 284.42 265.747 284.28L262.247 283.615C260.8 283.335 259.692 282.81 258.922 282.04C258.175 281.247 257.802 280.232 257.802 278.995C257.802 277.875 258.105 276.907 258.712 276.09C259.342 275.273 260.205 274.643 261.302 274.2C262.398 273.757 263.658 273.535 265.082 273.535C266.108 273.535 267.065 273.652 267.952 273.885C268.862 274.095 269.737 274.433 270.577 274.9C270.927 275.087 271.16 275.332 271.277 275.635C271.417 275.938 271.452 276.253 271.382 276.58C271.312 276.883 271.172 277.163 270.962 277.42C270.752 277.653 270.483 277.805 270.157 277.875C269.853 277.922 269.503 277.852 269.107 277.665C268.383 277.292 267.683 277.023 267.007 276.86C266.353 276.697 265.723 276.615 265.117 276.615C263.973 276.615 263.122 276.813 262.562 277.21C262.025 277.607 261.757 278.132 261.757 278.785C261.757 279.275 261.92 279.683 262.247 280.01C262.573 280.337 263.075 280.558 263.752 280.675L267.252 281.34C268.768 281.62 269.912 282.133 270.682 282.88C271.475 283.627 271.872 284.63 271.872 285.89C271.872 287.593 271.207 288.935 269.877 289.915C268.547 290.872 266.773 291.35 264.557 291.35ZM283.051 291.35C281.534 291.35 280.262 291.093 279.236 290.58C278.232 290.067 277.486 289.32 276.996 288.34C276.506 287.337 276.261 286.1 276.261 284.63V277.175H274.441C273.881 277.175 273.449 277.035 273.146 276.755C272.842 276.452 272.691 276.043 272.691 275.53C272.691 274.993 272.842 274.585 273.146 274.305C273.449 274.025 273.881 273.885 274.441 273.885H276.261V270.7C276.261 269.977 276.447 269.428 276.821 269.055C277.217 268.682 277.766 268.495 278.466 268.495C279.166 268.495 279.702 268.682 280.076 269.055C280.449 269.428 280.636 269.977 280.636 270.7V273.885H284.346C284.906 273.885 285.337 274.025 285.641 274.305C285.944 274.585 286.096 274.993 286.096 275.53C286.096 276.043 285.944 276.452 285.641 276.755C285.337 277.035 284.906 277.175 284.346 277.175H280.636V284.385C280.636 285.505 280.881 286.345 281.371 286.905C281.861 287.465 282.654 287.745 283.751 287.745C284.147 287.745 284.497 287.71 284.801 287.64C285.104 287.57 285.372 287.523 285.606 287.5C285.886 287.477 286.119 287.57 286.306 287.78C286.492 287.967 286.586 288.363 286.586 288.97C286.586 289.437 286.504 289.857 286.341 290.23C286.201 290.58 285.932 290.825 285.536 290.965C285.232 291.058 284.836 291.14 284.346 291.21C283.856 291.303 283.424 291.35 283.051 291.35ZM294.278 291.35C293.041 291.35 291.933 291.117 290.953 290.65C289.996 290.16 289.238 289.507 288.678 288.69C288.141 287.873 287.873 286.952 287.873 285.925C287.873 284.665 288.2 283.673 288.853 282.95C289.506 282.203 290.568 281.667 292.038 281.34C293.508 281.013 295.48 280.85 297.953 280.85H299.703V283.37H297.988C296.541 283.37 295.386 283.44 294.523 283.58C293.66 283.72 293.041 283.965 292.668 284.315C292.318 284.642 292.143 285.108 292.143 285.715C292.143 286.485 292.411 287.115 292.948 287.605C293.485 288.095 294.231 288.34 295.188 288.34C295.958 288.34 296.635 288.165 297.218 287.815C297.825 287.442 298.303 286.94 298.653 286.31C299.003 285.68 299.178 284.957 299.178 284.14V280.115C299.178 278.948 298.921 278.108 298.408 277.595C297.895 277.082 297.031 276.825 295.818 276.825C295.141 276.825 294.406 276.907 293.613 277.07C292.843 277.233 292.026 277.513 291.163 277.91C290.72 278.12 290.323 278.178 289.973 278.085C289.646 277.992 289.39 277.805 289.203 277.525C289.016 277.222 288.923 276.895 288.923 276.545C288.923 276.195 289.016 275.857 289.203 275.53C289.39 275.18 289.705 274.923 290.148 274.76C291.221 274.317 292.248 274.002 293.228 273.815C294.231 273.628 295.141 273.535 295.958 273.535C297.638 273.535 299.015 273.792 300.088 274.305C301.185 274.818 302.001 275.6 302.538 276.65C303.075 277.677 303.343 279.007 303.343 280.64V289.04C303.343 289.763 303.168 290.323 302.818 290.72C302.468 291.093 301.966 291.28 301.313 291.28C300.66 291.28 300.146 291.093 299.773 290.72C299.423 290.323 299.248 289.763 299.248 289.04V287.36H299.528C299.365 288.177 299.038 288.888 298.548 289.495C298.081 290.078 297.486 290.533 296.763 290.86C296.04 291.187 295.211 291.35 294.278 291.35ZM310.024 291.28C309.3 291.28 308.74 291.093 308.344 290.72C307.97 290.323 307.784 289.763 307.784 289.04V275.81C307.784 275.087 307.97 274.538 308.344 274.165C308.717 273.792 309.242 273.605 309.919 273.605C310.595 273.605 311.12 273.792 311.494 274.165C311.867 274.538 312.054 275.087 312.054 275.81V278.015H311.704C312.03 276.615 312.672 275.553 313.629 274.83C314.585 274.107 315.857 273.675 317.444 273.535C317.934 273.488 318.319 273.617 318.599 273.92C318.902 274.2 319.077 274.643 319.124 275.25C319.17 275.833 319.03 276.312 318.704 276.685C318.4 277.035 317.934 277.245 317.304 277.315L316.534 277.385C315.11 277.525 314.037 277.968 313.314 278.715C312.59 279.438 312.229 280.465 312.229 281.795V289.04C312.229 289.763 312.042 290.323 311.669 290.72C311.295 291.093 310.747 291.28 310.024 291.28ZM327.584 291.35C326.581 291.35 325.519 291.245 324.399 291.035C323.279 290.825 322.276 290.463 321.389 289.95C321.016 289.717 320.747 289.448 320.584 289.145C320.444 288.818 320.386 288.503 320.409 288.2C320.456 287.873 320.572 287.593 320.759 287.36C320.969 287.127 321.226 286.975 321.529 286.905C321.856 286.835 322.206 286.893 322.579 287.08C323.512 287.523 324.387 287.838 325.204 288.025C326.021 288.188 326.826 288.27 327.619 288.27C328.739 288.27 329.567 288.083 330.104 287.71C330.664 287.313 330.944 286.8 330.944 286.17C330.944 285.633 330.757 285.225 330.384 284.945C330.034 284.642 329.497 284.42 328.774 284.28L325.274 283.615C323.827 283.335 322.719 282.81 321.949 282.04C321.202 281.247 320.829 280.232 320.829 278.995C320.829 277.875 321.132 276.907 321.739 276.09C322.369 275.273 323.232 274.643 324.329 274.2C325.426 273.757 326.686 273.535 328.109 273.535C329.136 273.535 330.092 273.652 330.979 273.885C331.889 274.095 332.764 274.433 333.604 274.9C333.954 275.087 334.187 275.332 334.304 275.635C334.444 275.938 334.479 276.253 334.409 276.58C334.339 276.883 334.199 277.163 333.989 277.42C333.779 277.653 333.511 277.805 333.184 277.875C332.881 277.922 332.531 277.852 332.134 277.665C331.411 277.292 330.711 277.023 330.034 276.86C329.381 276.697 328.751 276.615 328.144 276.615C327.001 276.615 326.149 276.813 325.589 277.21C325.052 277.607 324.784 278.132 324.784 278.785C324.784 279.275 324.947 279.683 325.274 280.01C325.601 280.337 326.102 280.558 326.779 280.675L330.279 281.34C331.796 281.62 332.939 282.133 333.709 282.88C334.502 283.627 334.899 284.63 334.899 285.89C334.899 287.593 334.234 288.935 332.904 289.915C331.574 290.872 329.801 291.35 327.584 291.35ZM93.175 339.35C90.6083 339.35 88.4033 338.837 86.56 337.81C84.74 336.76 83.34 335.29 82.36 333.4C81.38 331.487 80.89 329.235 80.89 326.645C80.89 324.708 81.17 322.97 81.73 321.43C82.29 319.867 83.095 318.537 84.145 317.44C85.195 316.32 86.4783 315.468 87.995 314.885C89.535 314.278 91.2617 313.975 93.175 313.975C94.4583 313.975 95.7183 314.138 96.955 314.465C98.1917 314.792 99.2767 315.258 100.21 315.865C100.7 316.168 101.027 316.542 101.19 316.985C101.353 317.405 101.388 317.825 101.295 318.245C101.202 318.642 101.003 318.98 100.7 319.26C100.42 319.54 100.058 319.703 99.615 319.75C99.195 319.773 98.7283 319.622 98.215 319.295C97.4917 318.828 96.71 318.49 95.87 318.28C95.03 318.07 94.1783 317.965 93.315 317.965C91.6583 317.965 90.2583 318.303 89.115 318.98C87.9717 319.657 87.1083 320.637 86.525 321.92C85.9417 323.203 85.65 324.778 85.65 326.645C85.65 328.488 85.9417 330.063 86.525 331.37C87.1083 332.677 87.9717 333.668 89.115 334.345C90.2583 335.022 91.6583 335.36 93.315 335.36C94.2017 335.36 95.0767 335.255 95.94 335.045C96.8033 334.812 97.62 334.462 98.39 333.995C98.9033 333.692 99.3583 333.563 99.755 333.61C100.175 333.633 100.525 333.773 100.805 334.03C101.085 334.287 101.272 334.613 101.365 335.01C101.458 335.383 101.435 335.78 101.295 336.2C101.155 336.597 100.875 336.947 100.455 337.25C99.5217 337.927 98.4017 338.452 97.095 338.825C95.8117 339.175 94.505 339.35 93.175 339.35ZM111.639 339.35C109.865 339.35 108.325 338.988 107.019 338.265C105.712 337.542 104.697 336.515 103.974 335.185C103.25 333.832 102.889 332.245 102.889 330.425C102.889 329.048 103.087 327.823 103.484 326.75C103.904 325.653 104.499 324.72 105.269 323.95C106.039 323.157 106.96 322.562 108.034 322.165C109.107 321.745 110.309 321.535 111.639 321.535C113.412 321.535 114.952 321.897 116.259 322.62C117.565 323.343 118.58 324.37 119.304 325.7C120.027 327.03 120.389 328.605 120.389 330.425C120.389 331.802 120.179 333.038 119.759 334.135C119.362 335.232 118.779 336.177 118.009 336.97C117.239 337.74 116.317 338.335 115.244 338.755C114.17 339.152 112.969 339.35 111.639 339.35ZM111.639 336.025C112.502 336.025 113.26 335.815 113.914 335.395C114.567 334.975 115.069 334.357 115.419 333.54C115.792 332.7 115.979 331.662 115.979 330.425C115.979 328.558 115.582 327.17 114.789 326.26C113.995 325.327 112.945 324.86 111.639 324.86C110.775 324.86 110.017 325.07 109.364 325.49C108.71 325.887 108.197 326.505 107.824 327.345C107.474 328.162 107.299 329.188 107.299 330.425C107.299 332.268 107.695 333.668 108.489 334.625C109.282 335.558 110.332 336.025 111.639 336.025ZM130.265 339.35C129.261 339.35 128.2 339.245 127.08 339.035C125.96 338.825 124.956 338.463 124.07 337.95C123.696 337.717 123.428 337.448 123.265 337.145C123.125 336.818 123.066 336.503 123.09 336.2C123.136 335.873 123.253 335.593 123.44 335.36C123.65 335.127 123.906 334.975 124.21 334.905C124.536 334.835 124.886 334.893 125.26 335.08C126.193 335.523 127.068 335.838 127.885 336.025C128.701 336.188 129.506 336.27 130.3 336.27C131.42 336.27 132.248 336.083 132.785 335.71C133.345 335.313 133.625 334.8 133.625 334.17C133.625 333.633 133.438 333.225 133.065 332.945C132.715 332.642 132.178 332.42 131.455 332.28L127.955 331.615C126.508 331.335 125.4 330.81 124.63 330.04C123.883 329.247 123.51 328.232 123.51 326.995C123.51 325.875 123.813 324.907 124.42 324.09C125.05 323.273 125.913 322.643 127.01 322.2C128.106 321.757 129.366 321.535 130.79 321.535C131.816 321.535 132.773 321.652 133.66 321.885C134.57 322.095 135.445 322.433 136.285 322.9C136.635 323.087 136.868 323.332 136.985 323.635C137.125 323.938 137.16 324.253 137.09 324.58C137.02 324.883 136.88 325.163 136.67 325.42C136.46 325.653 136.191 325.805 135.865 325.875C135.561 325.922 135.211 325.852 134.815 325.665C134.091 325.292 133.391 325.023 132.715 324.86C132.061 324.697 131.431 324.615 130.825 324.615C129.681 324.615 128.83 324.813 128.27 325.21C127.733 325.607 127.465 326.132 127.465 326.785C127.465 327.275 127.628 327.683 127.955 328.01C128.281 328.337 128.783 328.558 129.46 328.675L132.96 329.34C134.476 329.62 135.62 330.133 136.39 330.88C137.183 331.627 137.58 332.63 137.58 333.89C137.58 335.593 136.915 336.935 135.585 337.915C134.255 338.872 132.481 339.35 130.265 339.35ZM148.759 339.35C147.242 339.35 145.97 339.093 144.944 338.58C143.94 338.067 143.194 337.32 142.704 336.34C142.214 335.337 141.969 334.1 141.969 332.63V325.175H140.149C139.589 325.175 139.157 325.035 138.854 324.755C138.55 324.452 138.399 324.043 138.399 323.53C138.399 322.993 138.55 322.585 138.854 322.305C139.157 322.025 139.589 321.885 140.149 321.885H141.969V318.7C141.969 317.977 142.155 317.428 142.529 317.055C142.925 316.682 143.474 316.495 144.174 316.495C144.874 316.495 145.41 316.682 145.784 317.055C146.157 317.428 146.344 317.977 146.344 318.7V321.885H150.054C150.614 321.885 151.045 322.025 151.349 322.305C151.652 322.585 151.804 322.993 151.804 323.53C151.804 324.043 151.652 324.452 151.349 324.755C151.045 325.035 150.614 325.175 150.054 325.175H146.344V332.385C146.344 333.505 146.589 334.345 147.079 334.905C147.569 335.465 148.362 335.745 149.459 335.745C149.855 335.745 150.205 335.71 150.509 335.64C150.812 335.57 151.08 335.523 151.314 335.5C151.594 335.477 151.827 335.57 152.014 335.78C152.2 335.967 152.294 336.363 152.294 336.97C152.294 337.437 152.212 337.857 152.049 338.23C151.909 338.58 151.64 338.825 151.244 338.965C150.94 339.058 150.544 339.14 150.054 339.21C149.564 339.303 149.132 339.35 148.759 339.35ZM156.52 339.175C155.726 339.175 155.085 338.93 154.595 338.44C154.128 337.95 153.895 337.32 153.895 336.55C153.895 335.803 154.128 335.197 154.595 334.73C155.085 334.24 155.726 333.995 156.52 333.995C157.336 333.995 157.966 334.24 158.41 334.73C158.876 335.197 159.11 335.803 159.11 336.55C159.11 337.32 158.876 337.95 158.41 338.44C157.966 338.93 157.336 339.175 156.52 339.175ZM156.52 326.89C155.726 326.89 155.085 326.645 154.595 326.155C154.128 325.665 153.895 325.047 153.895 324.3C153.895 323.53 154.128 322.912 154.595 322.445C155.085 321.955 155.726 321.71 156.52 321.71C157.336 321.71 157.966 321.955 158.41 322.445C158.876 322.912 159.11 323.53 159.11 324.3C159.11 325.047 158.876 325.665 158.41 326.155C157.966 326.645 157.336 326.89 156.52 326.89ZM175.788 339C175.181 339 174.703 338.837 174.353 338.51C174.026 338.16 173.863 337.693 173.863 337.11C173.863 336.503 174.026 336.048 174.353 335.745C174.703 335.442 175.181 335.29 175.788 335.29H179.708V318.105H181.878L176.733 321.22C176.29 321.477 175.87 321.582 175.473 321.535C175.1 321.465 174.773 321.302 174.493 321.045C174.236 320.765 174.061 320.438 173.968 320.065C173.875 319.692 173.898 319.318 174.038 318.945C174.201 318.548 174.505 318.222 174.948 317.965L179.778 315.06C180.245 314.78 180.711 314.547 181.178 314.36C181.645 314.15 182.076 314.045 182.473 314.045C182.963 314.045 183.371 314.185 183.698 314.465C184.025 314.722 184.188 315.153 184.188 315.76V335.29H187.758C188.365 335.29 188.831 335.442 189.158 335.745C189.508 336.048 189.683 336.503 189.683 337.11C189.683 337.717 189.508 338.183 189.158 338.51C188.831 338.837 188.365 339 187.758 339H175.788ZM202.024 339.35C200.788 339.35 199.528 339.187 198.244 338.86C196.961 338.533 195.783 338.032 194.709 337.355C194.266 337.075 193.963 336.748 193.799 336.375C193.659 335.978 193.624 335.593 193.694 335.22C193.788 334.823 193.963 334.497 194.219 334.24C194.499 333.96 194.826 333.797 195.199 333.75C195.596 333.703 196.028 333.808 196.494 334.065C197.358 334.555 198.233 334.928 199.119 335.185C200.006 335.442 200.951 335.57 201.954 335.57C202.934 335.57 203.774 335.395 204.474 335.045C205.174 334.695 205.711 334.205 206.084 333.575C206.458 332.945 206.644 332.21 206.644 331.37C206.644 330.063 206.248 329.013 205.454 328.22C204.661 327.403 203.576 326.995 202.199 326.995C201.453 326.995 200.729 327.123 200.029 327.38C199.329 327.613 198.641 328.033 197.964 328.64C197.754 328.827 197.486 329.013 197.159 329.2C196.833 329.363 196.483 329.445 196.109 329.445C195.526 329.445 195.083 329.293 194.779 328.99C194.476 328.687 194.324 328.267 194.324 327.73V316.285C194.324 315.655 194.488 315.177 194.814 314.85C195.164 314.5 195.654 314.325 196.284 314.325H207.799C208.429 314.325 208.908 314.488 209.234 314.815C209.584 315.118 209.759 315.573 209.759 316.18C209.759 316.763 209.584 317.218 209.234 317.545C208.908 317.872 208.429 318.035 207.799 318.035H198.699V325.875H197.544C198.151 325.058 198.956 324.428 199.959 323.985C200.963 323.542 202.059 323.32 203.249 323.32C204.813 323.32 206.166 323.658 207.309 324.335C208.476 324.988 209.374 325.91 210.004 327.1C210.658 328.267 210.984 329.632 210.984 331.195C210.984 332.805 210.623 334.228 209.899 335.465C209.176 336.678 208.138 337.635 206.784 338.335C205.454 339.012 203.868 339.35 202.024 339.35ZM222.801 339.35C219.884 339.35 217.656 338.253 216.116 336.06C214.576 333.843 213.806 330.693 213.806 326.61C213.806 323.857 214.144 321.547 214.821 319.68C215.521 317.79 216.536 316.367 217.866 315.41C219.219 314.453 220.864 313.975 222.801 313.975C225.741 313.975 227.969 315.048 229.486 317.195C231.026 319.342 231.796 322.468 231.796 326.575C231.796 329.305 231.446 331.627 230.746 333.54C230.069 335.43 229.066 336.877 227.736 337.88C226.406 338.86 224.761 339.35 222.801 339.35ZM222.801 335.675C224.387 335.675 225.554 334.94 226.301 333.47C227.071 332 227.456 329.702 227.456 326.575C227.456 323.448 227.071 321.185 226.301 319.785C225.554 318.362 224.387 317.65 222.801 317.65C221.237 317.65 220.071 318.362 219.301 319.785C218.531 321.185 218.146 323.448 218.146 326.575C218.146 329.702 218.531 332 219.301 333.47C220.071 334.94 221.237 335.675 222.801 335.675ZM255.739 339.35C254.036 339.35 252.531 339.128 251.224 338.685C249.941 338.242 248.856 337.588 247.969 336.725C247.082 335.838 246.417 334.742 245.974 333.435C245.531 332.128 245.309 330.612 245.309 328.885V316.32C245.309 315.55 245.496 314.978 245.869 314.605C246.266 314.232 246.826 314.045 247.549 314.045C248.272 314.045 248.821 314.232 249.194 314.605C249.591 314.978 249.789 315.55 249.789 316.32V328.85C249.789 331.067 250.291 332.735 251.294 333.855C252.321 334.952 253.802 335.5 255.739 335.5C257.676 335.5 259.146 334.952 260.149 333.855C261.152 332.735 261.654 331.067 261.654 328.85V316.32C261.654 315.55 261.841 314.978 262.214 314.605C262.611 314.232 263.171 314.045 263.894 314.045C264.594 314.045 265.131 314.232 265.504 314.605C265.901 314.978 266.099 315.55 266.099 316.32V328.885C266.099 331.172 265.702 333.097 264.909 334.66C264.139 336.223 262.984 337.402 261.444 338.195C259.904 338.965 258.002 339.35 255.739 339.35ZM279.829 339.35C278.802 339.35 277.776 339.268 276.749 339.105C275.722 338.965 274.754 338.743 273.844 338.44C272.934 338.113 272.117 337.717 271.394 337.25C270.974 336.97 270.682 336.632 270.519 336.235C270.356 335.838 270.297 335.453 270.344 335.08C270.414 334.683 270.566 334.345 270.799 334.065C271.056 333.762 271.371 333.575 271.744 333.505C272.117 333.435 272.526 333.54 272.969 333.82C273.996 334.427 275.081 334.87 276.224 335.15C277.367 335.43 278.569 335.57 279.829 335.57C281.672 335.57 283.014 335.267 283.854 334.66C284.694 334.03 285.114 333.225 285.114 332.245C285.114 331.428 284.811 330.787 284.204 330.32C283.621 329.853 282.606 329.468 281.159 329.165L277.309 328.36C275.092 327.893 273.436 327.112 272.339 326.015C271.266 324.895 270.729 323.425 270.729 321.605C270.729 320.462 270.962 319.423 271.429 318.49C271.896 317.557 272.549 316.752 273.389 316.075C274.252 315.398 275.267 314.885 276.434 314.535C277.624 314.162 278.931 313.975 280.354 313.975C281.754 313.975 283.084 314.15 284.344 314.5C285.604 314.85 286.736 315.363 287.739 316.04C288.112 316.297 288.357 316.612 288.474 316.985C288.614 317.358 288.649 317.732 288.579 318.105C288.509 318.455 288.346 318.758 288.089 319.015C287.832 319.272 287.506 319.423 287.109 319.47C286.736 319.517 286.304 319.4 285.814 319.12C284.951 318.63 284.076 318.28 283.189 318.07C282.302 317.86 281.346 317.755 280.319 317.755C279.246 317.755 278.324 317.907 277.554 318.21C276.784 318.513 276.189 318.945 275.769 319.505C275.372 320.042 275.174 320.683 275.174 321.43C275.174 322.27 275.454 322.947 276.014 323.46C276.574 323.95 277.531 324.335 278.884 324.615L282.699 325.42C285.009 325.91 286.724 326.68 287.844 327.73C288.987 328.78 289.559 330.18 289.559 331.93C289.559 333.05 289.326 334.065 288.859 334.975C288.416 335.885 287.762 336.667 286.899 337.32C286.059 337.973 285.044 338.475 283.854 338.825C282.664 339.175 281.322 339.35 279.829 339.35ZM295.784 339C295.014 339 294.419 338.802 293.999 338.405C293.602 337.985 293.404 337.39 293.404 336.62V316.705C293.404 315.935 293.602 315.352 293.999 314.955C294.419 314.535 295.014 314.325 295.784 314.325H302.574C306.704 314.325 309.889 315.387 312.129 317.51C314.392 319.633 315.524 322.678 315.524 326.645C315.524 328.628 315.232 330.39 314.649 331.93C314.089 333.447 313.249 334.73 312.129 335.78C311.032 336.83 309.679 337.635 308.069 338.195C306.482 338.732 304.651 339 302.574 339H295.784ZM297.884 335.29H302.294C303.741 335.29 304.989 335.115 306.039 334.765C307.112 334.392 307.999 333.855 308.699 333.155C309.422 332.432 309.959 331.533 310.309 330.46C310.659 329.363 310.834 328.092 310.834 326.645C310.834 323.752 310.122 321.593 308.699 320.17C307.276 318.747 305.141 318.035 302.294 318.035H297.884V335.29Z" fill="black"/>
<path d="M86.8833 99.376C85.912 99.376 85.16 99.1097 84.6273 98.577C84.126 98.013 83.8753 97.2453 83.8753 96.274V68.92C83.8753 67.9173 84.1417 67.1653 84.6743 66.664C85.207 66.1313 85.959 65.865 86.9303 65.865H98.2573C101.892 65.865 104.696 66.7423 106.67 68.497C108.644 70.2203 109.631 72.6487 109.631 75.782C109.631 77.8187 109.177 79.5733 108.268 81.046C107.391 82.5187 106.106 83.6467 104.414 84.43C102.722 85.2133 100.67 85.605 98.2573 85.605L98.6803 84.9H100.231C101.516 84.9 102.628 85.2133 103.568 85.84C104.54 86.4667 105.386 87.4537 106.106 88.801L109.631 95.334C110.007 95.992 110.18 96.6343 110.148 97.261C110.117 97.8877 109.882 98.4047 109.443 98.812C109.005 99.188 108.362 99.376 107.516 99.376C106.67 99.376 105.981 99.2037 105.448 98.859C104.916 98.483 104.446 97.919 104.038 97.167L99.2913 88.425C98.7273 87.3597 98.0537 86.6547 97.2703 86.31C96.5183 85.934 95.547 85.746 94.3563 85.746H89.8913V96.274C89.8913 97.2453 89.6407 98.013 89.1393 98.577C88.638 99.1097 87.886 99.376 86.8833 99.376ZM89.8913 81.281H97.2233C99.3853 81.281 101.015 80.8423 102.111 79.965C103.239 79.0563 103.803 77.709 103.803 75.923C103.803 74.1683 103.239 72.8523 102.111 71.975C101.015 71.0663 99.3853 70.612 97.2233 70.612H89.8913V81.281ZM130.719 99.47C127.523 99.47 124.718 98.765 122.306 97.355C119.924 95.945 118.076 93.971 116.76 91.433C115.444 88.8637 114.786 85.8557 114.786 82.409C114.786 79.8083 115.162 77.474 115.914 75.406C116.666 73.3067 117.731 71.5207 119.11 70.048C120.52 68.544 122.196 67.4003 124.139 66.617C126.113 65.8023 128.306 65.395 130.719 65.395C133.946 65.395 136.75 66.1 139.132 67.51C141.513 68.8887 143.362 70.847 144.678 73.385C145.994 75.923 146.652 78.9153 146.652 82.362C146.652 84.9627 146.276 87.3127 145.524 89.412C144.772 91.5113 143.691 93.313 142.281 94.817C140.902 96.321 139.226 97.4803 137.252 98.295C135.309 99.0783 133.131 99.47 130.719 99.47ZM130.719 94.3C132.755 94.3 134.479 93.83 135.889 92.89C137.33 91.95 138.427 90.587 139.179 88.801C139.962 87.015 140.354 84.8843 140.354 82.409C140.354 78.649 139.508 75.735 137.816 73.667C136.155 71.599 133.789 70.565 130.719 70.565C128.713 70.565 126.99 71.035 125.549 71.975C124.107 72.8837 122.995 74.231 122.212 76.017C121.46 77.7717 121.084 79.9023 121.084 82.409C121.084 86.1377 121.93 89.0517 123.622 91.151C125.314 93.2503 127.679 94.3 130.719 94.3ZM155.589 99.376C154.68 99.376 153.975 99.1253 153.474 98.624C153.004 98.1227 152.769 97.402 152.769 96.462V68.497C152.769 67.5257 153.004 66.7893 153.474 66.288C153.975 65.7553 154.618 65.489 155.401 65.489C156.122 65.489 156.654 65.63 156.999 65.912C157.375 66.1627 157.814 66.6013 158.315 67.228L176.316 90.587H175.094V68.356C175.094 67.4473 175.329 66.7423 175.799 66.241C176.3 65.7397 177.005 65.489 177.914 65.489C178.823 65.489 179.512 65.7397 179.982 66.241C180.452 66.7423 180.687 67.4473 180.687 68.356V96.556C180.687 97.4333 180.468 98.1227 180.029 98.624C179.59 99.1253 178.995 99.376 178.243 99.376C177.522 99.376 176.943 99.235 176.504 98.953C176.097 98.671 175.642 98.2167 175.141 97.59L157.187 74.231H158.362V96.462C158.362 97.402 158.127 98.1227 157.657 98.624C157.187 99.1253 156.498 99.376 155.589 99.376ZM191.123 99C190.089 99 189.29 98.7337 188.726 98.201C188.193 97.637 187.927 96.838 187.927 95.804V69.061C187.927 68.027 188.193 67.2437 188.726 66.711C189.29 66.147 190.089 65.865 191.123 65.865H207.902C208.685 65.865 209.281 66.0687 209.688 66.476C210.127 66.8833 210.346 67.463 210.346 68.215C210.346 68.9983 210.127 69.6093 209.688 70.048C209.281 70.4553 208.685 70.659 207.902 70.659H193.708V79.777H206.868C207.683 79.777 208.294 79.9807 208.701 80.388C209.108 80.7953 209.312 81.3907 209.312 82.174C209.312 82.9573 209.108 83.5527 208.701 83.96C208.294 84.3673 207.683 84.571 206.868 84.571H193.708V94.206H207.902C208.685 94.206 209.281 94.4097 209.688 94.817C210.127 95.2243 210.346 95.8197 210.346 96.603C210.346 97.3863 210.127 97.9817 209.688 98.389C209.281 98.7963 208.685 99 207.902 99H191.123ZM219.026 99C218.055 99 217.303 98.7337 216.77 98.201C216.237 97.637 215.971 96.8693 215.971 95.898V68.779C215.971 67.7763 216.222 67.0243 216.723 66.523C217.256 65.9903 218.008 65.724 218.979 65.724C219.95 65.724 220.687 65.9903 221.188 66.523C221.721 67.0243 221.987 67.7763 221.987 68.779V93.877H235.617C236.463 93.877 237.105 94.0963 237.544 94.535C238.014 94.9737 238.249 95.6003 238.249 96.415C238.249 97.2297 238.014 97.872 237.544 98.342C237.105 98.7807 236.463 99 235.617 99H219.026Z" fill="black"/>
<defs>
<filter id="filter0_d_2_313" x="0" y="0" width="545" height="473" filterUnits="userSpaceOnUse" color-interpolation-filters="sRGB">
<feFlood flood-opacity="0" result="BackgroundImageFix"/>
<feColorMatrix in="SourceAlpha" type="matrix" values="0 0 0 0 0 0 0 0 0 0 0 0 0 0 0 0 0 0 127 0" result="hardAlpha"/>
<feMorphology radius="1" operator="dilate" in="SourceAlpha" result="effect1_dropShadow_2_313"/>
<feOffset dy="11"/>
<feGaussianBlur stdDeviation="2.5"/>
<feComposite in2="hardAlpha" operator="out"/>
<feColorMatrix type="matrix" values="0 0 0 0 0 0 0 0 0 0 0 0 0 0 0 0 0 0 0.25 0"/>
<feBlend mode="normal" in2="BackgroundImageFix" result="effect1_dropShadow_2_313"/>
<feBlend mode="normal" in="SourceGraphic" in2="effect1_dropShadow_2_313" result="shape"/>
</filter>
</defs>
</svg>
